<svg width="36" height="36" viewBox="0 0 36 36" fill="none" xmlns="http://www.w3.org/2000/svg">
<path d="M0 36L13.3926 9.24223V0H21.2278V6.3067H14.7993V9.24223L21.2007 22.0309L25.1047 14.2315L36 36H0ZM22.8781 25.3838L27.4963 34.6117H33.7346L28.6149 24.3833L27.0606 25.2364L25.1038 24.1621L22.8781 25.3838ZM2.26443 34.6117H25.9284L18.8586 20.4865L16.6951 21.6747L14.0959 20.2481L11.4968 21.6747L9.33326 20.4865L2.26443 34.6117ZM22.2165 23.1367L23.1469 23.647L25.1038 22.5728L27.0616 23.647L27.992 23.1367L25.1047 17.3671L22.2165 23.1367ZM16.6951 20.0863L18.2348 19.2409L14.0959 10.9723L9.9571 19.2418L11.4968 20.0863L14.095 18.6597L16.6951 20.0863ZM14.7993 4.9184H19.8211V1.3883H14.7993V4.9184Z" fill="#4F4F4F"/>
</svg>
