<svg width="28" height="29" viewBox="0 0 28 29" fill="none" xmlns="http://www.w3.org/2000/svg">
<path d="M10.5462 27.9874C7.77045 27.9874 4.97271 27.9874 2.19699 27.9874C1.24972 27.9874 0.588837 27.3265 0.588837 26.3792C0.588837 22.8325 0.588837 19.2857 0.588837 15.739C0.588837 14.8357 1.27175 14.1528 2.17496 14.1528C7.74843 14.1528 13.3219 14.1528 18.8954 14.1528C19.8206 14.1528 20.5035 14.8357 20.5035 15.761C20.5035 19.3077 20.5035 22.8545 20.5035 26.4012C20.5035 27.3265 19.8206 28.0094 18.8954 28.0094C16.1196 27.9874 13.3219 27.9874 10.5462 27.9874ZM4.444 19.1315C4.92865 19.1315 5.4133 19.1315 5.87592 19.1315C6.33854 19.1315 6.66898 18.8011 6.66898 18.3384C6.66898 17.7657 6.66898 17.1929 6.66898 16.6201C6.66898 16.1575 6.31651 15.805 5.85389 15.805C4.92865 15.805 3.98138 15.805 3.05614 15.805C2.57149 15.805 2.24105 16.1355 2.24105 16.6201C2.24105 17.1929 2.24105 17.7436 2.24105 18.3164C2.24105 18.8011 2.57149 19.1315 3.07817 19.1315C3.54079 19.1315 4.00341 19.1315 4.444 19.1315Z" fill="#1BB899"/>
<path d="M12.4407 8.40276C12.0002 8.82133 11.6257 9.19583 11.2071 9.61439C12.5068 10.9141 13.8286 12.2359 15.1944 13.5797C15.0402 13.5797 14.9521 13.5797 14.864 13.5797C12.7051 13.5797 10.5682 13.5797 8.40934 13.5797C8.23311 13.5797 8.10093 13.5356 7.96875 13.4035C7.19772 12.6104 6.40466 11.8394 5.63363 11.0463C5.03883 10.4295 5.03883 9.48221 5.63363 8.86539C8.16702 6.33199 10.7004 3.82063 13.2118 1.28724C13.8286 0.670411 14.864 0.69244 15.5249 1.37535C18.8513 4.72384 22.1778 8.05029 25.5042 11.3767C26.077 11.9495 26.6498 12.5223 27.2225 13.095C27.9275 13.8 27.9275 14.7032 27.2225 15.4081C25.2179 17.4128 23.2132 19.4175 21.2085 21.4222C21.1865 21.4663 21.1424 21.4883 21.0543 21.5764C21.0543 21.4442 21.0543 21.3341 21.0543 21.246C21.0543 19.3955 21.0543 17.545 21.0543 15.7166C21.0543 14.549 20.107 13.5797 18.9394 13.5797H18.9174C18.4548 13.5797 17.9701 13.6898 17.5736 13.5356C17.1771 13.3814 16.9127 12.9408 16.6043 12.6324C15.2605 11.3107 13.9388 9.96686 12.617 8.64509C12.5289 8.55697 12.4848 8.46885 12.4407 8.40276ZM10.8546 4.45948C15.2825 8.88741 19.7325 13.3153 24.1384 17.7212C24.7552 17.1044 25.4161 16.4435 26.0109 15.8487C21.605 11.4428 17.1551 7.01491 12.7492 2.58698C12.1323 3.2038 11.4935 3.84266 10.8546 4.45948Z" fill="#1BB899"/>
</svg>
