<svg width="33" height="33" viewBox="0 0 33 33" fill="none" xmlns="http://www.w3.org/2000/svg">
<path d="M0.596093 6.18359C9.95215 6.18359 19.2221 6.18359 28.6643 6.18359C28.6643 6.73332 28.6643 7.25412 28.6643 7.80385C28.6643 11.6519 28.6356 15.5 28.693 19.3481C28.693 19.7243 28.9513 20.2161 29.2382 20.4187C31.936 22.1257 33.084 24.9901 32.1943 27.9702C31.3046 30.8635 28.693 32.6284 25.5073 32.4259C22.6947 32.2523 20.3988 30.0534 19.8248 27.0444C19.7961 26.9576 19.7387 26.8708 19.6813 26.6682C17.0409 26.6682 14.3719 26.6682 11.7028 26.6682C8.34497 26.6682 4.98712 26.6393 1.60058 26.6682C0.883089 26.6972 0.509995 26.4946 0.509995 25.6845C0.509995 19.3771 0.509995 13.0697 0.509995 6.76226C0.509995 6.61759 0.538694 6.44399 0.596093 6.18359ZM21.0015 26.0317C21.0015 28.8671 23.2974 31.2107 26.0813 31.2107C28.8939 31.2107 31.2185 28.925 31.2185 26.1185C31.2185 23.1963 29.0087 20.9395 26.11 20.9395C23.24 20.9395 21.0015 23.1673 21.0015 26.0317ZM9.49296 11.2469C14.4293 11.2469 19.2508 11.2469 24.101 11.2469C24.101 10.8129 24.101 10.4368 24.101 10.0317C19.1934 10.0317 14.3719 10.0317 9.49296 10.0317C9.49296 10.4368 9.49296 10.8129 9.49296 11.2469ZM9.52165 16.4548C9.52165 16.9178 9.52165 17.2939 9.52165 17.67C14.4293 17.67 19.2795 17.67 24.101 17.67C24.101 17.2071 24.101 16.8599 24.101 16.4548C19.2221 16.4548 14.4006 16.4548 9.52165 16.4548ZM9.49296 14.4295C14.4293 14.4295 19.2508 14.4295 24.101 14.4295C24.101 14.0245 24.101 13.6773 24.101 13.3011C19.1934 13.3011 14.3719 13.3011 9.49296 13.3011C9.49296 13.6773 9.49296 13.9955 9.49296 14.4295ZM19.6526 19.6664C16.2373 19.6664 12.8795 19.6664 9.52165 19.6664C9.52165 20.1293 9.52165 20.5055 9.52165 20.8527C12.9369 20.8527 16.266 20.8527 19.6526 20.8527C19.6526 20.4187 19.6526 20.0715 19.6526 19.6664ZM5.04452 10.0317C5.04452 10.4946 5.04452 10.8708 5.04452 11.218C5.90551 11.218 6.7091 11.218 7.48399 11.218C7.48399 10.784 7.48399 10.4368 7.48399 10.0317C6.6517 10.0317 5.87681 10.0317 5.04452 10.0317ZM4.98712 20.8527C5.87681 20.8527 6.6804 20.8527 7.45529 20.8527C7.45529 20.3897 7.45529 20.0136 7.45529 19.6664C6.5943 19.6664 5.79071 19.6664 4.98712 19.6664C4.98712 20.1004 4.98712 20.4476 4.98712 20.8527ZM7.48399 16.5127C6.5656 16.5127 5.79071 16.5127 4.92973 16.5127C4.95843 16.9467 4.95843 17.2939 4.98712 17.67C5.84811 17.67 6.6517 17.67 7.48399 17.67C7.48399 17.236 7.48399 16.8888 7.48399 16.5127ZM7.45529 14.4295C7.45529 13.9955 7.45529 13.6483 7.45529 13.3011C6.5943 13.3011 5.81941 13.3011 5.01582 13.3011C5.01582 13.7062 5.01582 14.0534 5.01582 14.4295C5.84811 14.4295 6.623 14.4295 7.45529 14.4295Z" fill="#1BB899"/>
<path d="M0.538693 4.76599C0.538693 3.8112 0.481294 2.91427 0.567393 2.04628C0.653492 0.917888 1.31358 0.426025 2.57636 0.426025C9.69385 0.426025 16.8113 0.426025 23.9288 0.426025C24.8759 0.426025 25.823 0.426025 26.7701 0.426025C27.9468 0.454958 28.6356 1.14935 28.6643 2.33561C28.693 3.03 28.6643 3.7244 28.6643 4.41879C28.6643 4.50559 28.6356 4.62132 28.6069 4.79492C19.2795 4.76599 9.98085 4.76599 0.538693 4.76599Z" fill="#1BB899"/>
<path d="M23.9862 28.4331C23.7279 28.1438 23.4983 27.8834 23.1539 27.4783C23.7279 27.0443 24.2445 26.6393 24.7898 26.2632C25.3351 25.916 25.5647 25.482 25.5073 24.8165C25.4499 23.9774 25.5073 23.1384 25.5073 22.2415C25.9378 22.2415 26.2535 22.2415 26.7127 22.2415C26.7127 23.5434 26.7127 24.8454 26.684 26.1185C26.684 26.2921 26.4831 26.5236 26.3396 26.6393C25.5934 27.2469 24.7898 27.8255 23.9862 28.4331Z" fill="#1BB899"/>
</svg>
