<svg width="27" height="21" viewBox="0 0 27 21" fill="none" xmlns="http://www.w3.org/2000/svg">
<path d="M0.928778 2.5408C1.14306 2.09439 1.32162 1.63012 1.60733 1.23727C2.1966 0.415867 3.07157 0.112305 4.03583 0.112305C9.57138 0.112305 15.0891 0.112305 20.6246 0.112305C22.7317 0.112305 23.8031 1.73726 23.7495 3.27292C23.6781 5.71928 23.7317 8.18349 23.7317 10.6477C23.7317 10.8798 23.7317 11.0941 23.7138 11.3263C23.6245 12.3798 23.3388 12.5762 22.3567 12.2905C20.9282 11.862 19.4818 11.4334 18.0533 11.0048C17.4997 10.8263 16.9997 10.8084 16.5533 11.2548C16.089 11.6655 16.089 12.2012 16.3033 12.7726C16.3569 12.9155 16.3926 13.0583 16.4283 13.2012C16.5355 13.6119 16.3926 13.844 15.9283 13.844C15.0534 13.844 14.1784 13.844 13.3034 13.844C10.3571 13.844 7.42858 13.844 4.48224 13.844C2.37516 13.8262 1.64304 13.3262 0.928778 11.362C0.928778 8.43349 0.928778 5.48714 0.928778 2.5408ZM5.07151 6.91567C5.07151 7.75493 5.07151 8.59419 5.07151 9.43345C5.07151 9.86201 5.25008 10.0406 5.67864 10.0406C6.23219 10.0227 6.8036 10.0406 7.35716 10.0406C8.05357 10.0406 8.55355 9.7013 8.89283 9.11204C9.19639 8.50491 9.17853 7.89779 8.80354 7.36209C8.60712 7.07638 8.60712 6.91567 8.78569 6.62997C9.49995 5.54071 8.91068 4.18361 7.62501 3.98719C7.03574 3.88005 6.41076 3.93362 5.80363 3.91576C5.28579 3.89791 5.05365 4.09433 5.07151 4.63003C5.08937 5.39786 5.07151 6.14784 5.07151 6.91567ZM14.3391 6.39783C14.3391 5.75499 14.3748 5.0943 14.3212 4.45146C14.3034 4.27289 14.0712 4.11219 13.9462 3.93362C13.7855 4.09433 13.607 4.23718 13.4998 4.41575C13.4463 4.52289 13.482 4.70145 13.482 4.86216C13.482 5.87999 13.4998 6.91567 13.482 7.9335C13.4641 8.73705 12.9998 9.20132 12.3034 9.18346C11.6249 9.14775 11.2142 8.68348 11.2142 7.91564C11.2142 6.77282 11.232 5.64785 11.1963 4.50503C11.1963 4.30861 10.9463 4.13004 10.8035 3.93362C10.6428 4.13004 10.3571 4.30861 10.3392 4.50503C10.3035 5.70142 10.2856 6.87996 10.3214 8.07635C10.3571 9.25489 11.2678 10.0763 12.4463 10.0406C13.5177 10.0049 14.3212 9.11204 14.3212 7.96921C14.3391 7.43352 14.3391 6.91567 14.3391 6.39783ZM17.6247 6.12998C17.1783 5.41572 16.8212 4.84431 16.4819 4.27289C16.3033 3.98719 16.1069 3.82648 15.8033 4.0229C15.5176 4.20147 15.5712 4.45146 15.7319 4.70145C16.1069 5.30858 16.5176 5.9157 16.839 6.55854C17.0176 6.89782 17.1247 7.30852 17.1604 7.70136C17.214 8.27278 17.1604 8.84419 17.1783 9.43345C17.1783 9.71916 17.2319 10.0227 17.6069 10.0227C17.9818 10.0227 18.0354 9.73702 18.0354 9.43345C18.0354 8.89776 17.9818 8.3442 18.0533 7.8085C18.1068 7.36209 18.214 6.91567 18.4104 6.50497C18.7318 5.86213 19.1782 5.27286 19.4997 4.63003C19.5889 4.46932 19.4282 4.18361 19.3925 3.96933C19.1782 4.05862 18.9461 4.11219 18.7854 4.23718C18.6425 4.34432 18.589 4.54074 18.4818 4.70145C18.214 5.13001 17.964 5.57643 17.6247 6.12998Z" fill="#1BB899"/>
<path d="M20.8032 17.7368C20.4282 18.1475 20.1246 18.5224 19.7854 18.8617C19.4104 19.2188 19.1247 19.1653 18.964 18.6653C18.3211 16.5404 17.6783 14.4333 17.0533 12.3262C16.9283 11.8798 17.1783 11.6298 17.6426 11.7548C19.7497 12.3798 21.8746 13.0047 23.9817 13.6476C24.4817 13.7904 24.5352 14.094 24.1781 14.469C23.8388 14.8083 23.4817 15.1297 23.0888 15.5047C23.9995 16.2725 24.8566 16.9868 25.6959 17.7189C26.2137 18.1653 26.2137 18.2367 25.7495 18.7189C25.1602 19.3081 24.5531 19.8974 23.9817 20.5045C23.6603 20.8438 23.3924 20.8081 23.1067 20.451C22.3567 19.576 21.6246 18.7189 20.8032 17.7368Z" fill="#1BB899"/>
<path d="M6.82142 6.55865C6.69643 6.55865 6.55357 6.54079 6.42858 6.55865C6.03573 6.61222 5.92859 6.43365 5.94645 6.05866C6.00002 4.523 5.71431 4.8087 7.17856 4.79084C7.83925 4.77299 8.21424 5.13012 8.21424 5.68368C8.21424 6.25509 7.85711 6.55865 7.1607 6.55865C7.05356 6.55865 6.94642 6.55865 6.82142 6.55865Z" fill="#1BB899"/>
<path d="M5.98219 9.14774C5.98219 8.55847 5.98219 8.04063 5.98219 7.45136C6.51789 7.45136 7.03573 7.41565 7.55357 7.46922C7.98213 7.52278 8.21427 7.8442 8.21427 8.29062C8.21427 8.77275 7.98213 9.09417 7.51786 9.14774C7.03573 9.20131 6.53575 9.14774 5.98219 9.14774Z" fill="#1BB899"/>
</svg>
