<svg width="28" height="27" viewBox="0 0 28 27" fill="none" xmlns="http://www.w3.org/2000/svg">
<path d="M16.6491 24.3338C16.4112 24.3338 16.2209 24.3575 16.0305 24.3575C11.5104 24.3575 6.96648 24.3575 2.44635 24.3575C1.16168 24.3575 0.614502 23.8104 0.614502 22.5495C0.614502 19.1713 0.614502 15.7931 0.614502 12.4387C0.614502 12.2483 0.614502 12.058 0.614502 11.7963C1.16168 11.7963 1.63748 11.7963 2.20845 11.7963C2.20845 8.08506 2.20845 4.42137 2.20845 0.733887C9.08381 0.733887 15.8878 0.733887 22.7156 0.733887C22.7156 4.39758 22.7156 8.06127 22.7156 11.7725C23.239 11.7725 23.7386 11.7725 24.262 11.7725C24.262 13.0096 24.262 14.1753 24.262 15.3649C21.6212 14.4608 19.2184 14.8891 17.339 17.0064C15.3882 19.1951 15.3168 21.693 16.6491 24.3338ZM21.1692 3.82661C15.3644 3.82661 9.6072 3.82661 3.82618 3.82661C3.82618 6.49111 3.82618 9.10804 3.82618 11.725C9.63099 11.725 15.3882 11.725 21.1692 11.725C21.1692 9.08424 21.1692 6.49111 21.1692 3.82661Z" fill="#1BB899"/>
<path d="M16.8395 21.027C16.8395 18.2673 19.1233 16.031 21.9306 16.0073C24.6902 15.9835 27.0454 18.3387 27.0454 21.0984C27.0217 23.8342 24.6902 26.1419 21.9306 26.1181C19.0757 26.0943 16.8157 23.8342 16.8395 21.027ZM21.2406 24.0721C21.4785 23.9532 21.6926 23.9294 21.8116 23.7867C22.9297 22.7161 24.0241 21.6455 25.1184 20.575C25.4753 20.2419 25.4277 19.9089 25.0709 19.552C24.6902 19.1951 24.3572 19.2665 24.0241 19.5758C23.3818 20.2181 22.7394 20.8367 22.0971 21.4552C21.5737 21.9548 21.4785 21.9548 21.0027 21.4552C20.7886 21.2173 20.5745 20.9794 20.3842 20.7415C20.0273 20.3133 19.7181 20.3133 19.3136 20.6939C18.6951 21.2649 18.5999 21.5266 19.0044 21.9786C19.5277 22.5496 20.0511 23.1205 20.6221 23.6677C20.7886 23.8342 21.0265 23.9294 21.2406 24.0721Z" fill="#1BB899"/>
<path d="M19.5277 5.46802C19.5277 5.94382 19.5277 6.41963 19.5277 6.94301C14.8411 6.94301 10.1306 6.94301 5.42014 6.94301C5.42014 6.46721 5.42014 5.9914 5.42014 5.46802C10.1068 5.46802 14.7935 5.46802 19.5277 5.46802Z" fill="#1BB899"/>
<path d="M19.5277 8.63232C19.5277 9.13192 19.5277 9.58393 19.5277 10.0835C14.8173 10.0835 10.1306 10.0835 5.42014 10.0835C5.42014 9.60772 5.42014 9.13192 5.42014 8.63232C10.1068 8.63232 14.7935 8.63232 19.5277 8.63232Z" fill="#1BB899"/>
</svg>
