<svg width="29" height="29" viewBox="0 0 29 29" fill="none" xmlns="http://www.w3.org/2000/svg">
<path d="M23.3511 5.41702H2.19002L12.7705 14.7109L23.3511 5.41702Z" fill="white"/>
<path d="M24.1317 15.4508V6.45969L16.7183 12.9928L20.2498 16.4312C21.061 15.7608 22.0908 15.3595 23.2123 15.3595C23.5274 15.3571 23.8331 15.3908 24.1317 15.4508Z" fill="white"/>
<path d="M1.40929 6.45969V20.2107L8.82271 12.9928L1.40929 6.45969Z" fill="white"/>
<path d="M19.4174 17.3203L15.8177 13.8867L12.5895 16.6427L9.66453 13.9997L2.36867 21.184H18.5851C18.5192 20.862 18.484 20.5304 18.484 20.1892C18.484 19.1128 18.8343 18.1228 19.4174 17.3203Z" fill="white"/>
<path d="M27.1929 18.9661C27.1529 18.8364 27.1083 18.7114 27.0565 18.5889C26.4452 17.1136 25.0157 16.078 23.351 16.078C21.1291 16.078 19.3281 17.9185 19.3281 20.1891C19.3281 22.4598 21.1291 24.3003 23.351 24.3003C25.018 24.3003 26.4476 23.2647 27.0565 21.7894C27.1083 21.6668 27.1529 21.5395 27.1929 21.4121C27.3105 21.0253 27.374 20.6144 27.374 20.1891C27.374 19.7638 27.3105 19.353 27.1929 18.9661ZM23.3416 22.1546C23.1465 21.9768 23.13 21.6716 23.304 21.4722L24.0023 20.6721H21.644C21.383 20.6721 21.1714 20.4558 21.1714 20.1891C21.1714 19.9224 21.383 19.7062 21.644 19.7062H24L23.3016 18.9061C23.1276 18.7066 23.1441 18.4015 23.3393 18.2237C23.5344 18.0459 23.833 18.0627 24.007 18.2621L25.406 19.8672C25.4107 19.872 25.413 19.8792 25.4177 19.884C25.4248 19.8936 25.4318 19.9008 25.4389 19.9104C25.4436 19.9176 25.4483 19.9248 25.453 19.9344C25.4601 19.9441 25.4648 19.9537 25.4695 19.9657C25.4742 19.9753 25.4789 19.9849 25.4836 19.9921C25.4883 19.9993 25.4906 20.0089 25.493 20.0185C25.4977 20.0306 25.5 20.0426 25.5047 20.0522C25.5071 20.0618 25.5094 20.0714 25.5118 20.081C25.5141 20.0906 25.5141 20.0978 25.5165 20.1074C25.5188 20.1195 25.5188 20.1315 25.5212 20.1435C25.5212 20.1555 25.5235 20.1651 25.5235 20.1771C25.5235 20.1819 25.5259 20.1867 25.5259 20.1891C25.5259 20.1915 25.5259 20.1987 25.5235 20.2012C25.5235 20.2132 25.5235 20.2228 25.5212 20.2348C25.5212 20.2468 25.5188 20.2588 25.5165 20.2708C25.5141 20.2804 25.5141 20.2877 25.5118 20.2973C25.5094 20.3069 25.5071 20.3165 25.5047 20.3261C25.5024 20.3381 25.4977 20.3501 25.493 20.3597C25.4906 20.3693 25.4859 20.3766 25.4836 20.3862C25.4789 20.3958 25.4742 20.4054 25.4695 20.4126C25.4648 20.4222 25.4577 20.4342 25.453 20.4438C25.4483 20.451 25.4436 20.4606 25.4389 20.4679C25.4318 20.4775 25.4248 20.4847 25.4177 20.4943C25.413 20.4991 25.4107 20.5063 25.406 20.5111L24.007 22.1162C23.913 22.2243 23.7836 22.2771 23.6543 22.2771C23.5438 22.2771 23.4333 22.2363 23.3416 22.1546Z" fill="white"/>
<path d="M24.0093 22.1162L25.4083 20.5111C25.413 20.5063 25.4154 20.4991 25.4201 20.4943C25.4271 20.4847 25.4342 20.4775 25.4412 20.4679C25.4459 20.4607 25.4506 20.4535 25.4553 20.4439C25.4624 20.4343 25.4671 20.4246 25.4718 20.4126C25.4765 20.403 25.4812 20.3934 25.4859 20.3862C25.4906 20.379 25.493 20.3694 25.4953 20.3598C25.5 20.3478 25.5024 20.3357 25.5071 20.3261C25.5094 20.3165 25.5118 20.3069 25.5141 20.2973C25.5165 20.2877 25.5165 20.2805 25.5188 20.2709C25.5212 20.2589 25.5212 20.2468 25.5235 20.2348C25.5235 20.2228 25.5259 20.2132 25.5259 20.2012C25.5259 20.1964 25.5282 20.1916 25.5282 20.1892C25.5282 20.1868 25.5282 20.1796 25.5259 20.1772C25.5259 20.1651 25.5259 20.1555 25.5235 20.1435C25.5235 20.1315 25.5212 20.1195 25.5188 20.1075C25.5165 20.0979 25.5165 20.0907 25.5141 20.081C25.5118 20.0714 25.5094 20.0618 25.5071 20.0522C25.5047 20.0402 25.5 20.0282 25.4953 20.0186C25.493 20.009 25.4883 20.0018 25.4859 19.9921C25.4812 19.9825 25.4765 19.9729 25.4718 19.9657C25.4671 19.9561 25.46 19.9441 25.4553 19.9345C25.4506 19.9273 25.4459 19.9201 25.4412 19.9105C25.4342 19.9008 25.4271 19.8936 25.4201 19.884C25.4154 19.8792 25.413 19.872 25.4083 19.8672L24.0093 18.2622C23.8353 18.0627 23.5367 18.0459 23.3416 18.2237C23.1464 18.4015 23.13 18.7067 23.304 18.9061L24.0023 19.7062H21.644C21.383 19.7062 21.1714 19.9225 21.1714 20.1892C21.1714 20.4559 21.383 20.6721 21.644 20.6721H23.9999L23.3016 21.4722C23.1276 21.6717 23.1441 21.9768 23.3392 22.1546C23.4286 22.2363 23.5414 22.2772 23.6543 22.2772C23.786 22.2772 23.9153 22.2219 24.0093 22.1162Z" fill="#E46817"/>
</svg>
