<svg width="42" height="42" viewBox="0 0 42 42" fill="none" xmlns="http://www.w3.org/2000/svg">
<path d="M34.5118 11.212C34.512 11.0914 34.4878 10.972 34.4407 10.8609C34.3936 10.7499 34.3245 10.6496 34.2375 10.566L29.7884 6.24488C29.6789 6.13675 29.5437 6.05821 29.3954 6.01661C29.2472 5.97502 29.0909 5.97173 28.9411 6.00705C28.7912 6.04238 28.6528 6.11516 28.5388 6.21859C28.4248 6.32201 28.3389 6.45268 28.2892 6.59836C28.2831 6.62274 27.4725 8.97527 25.1687 8.8229C24.4621 8.77372 23.7814 8.53718 23.1965 8.13764C22.6117 7.73809 22.1438 7.18995 21.8411 6.54961C21.7734 6.38371 21.6578 6.24175 21.5091 6.14187C21.3604 6.04199 21.1852 5.98873 21.0061 5.9889H21C20.821 5.9895 20.6462 6.04229 20.4968 6.1408C20.3474 6.23931 20.23 6.37927 20.1589 6.54351C19.8579 7.18562 19.3906 7.73555 18.8055 8.13632C18.2204 8.5371 17.5388 8.77414 16.8313 8.8229C14.5641 8.97527 13.7413 6.68978 13.7108 6.59836C13.6611 6.45268 13.5752 6.32201 13.4612 6.21859C13.3472 6.11516 13.2087 6.04238 13.0589 6.00705C12.9091 5.97173 12.7528 5.97502 12.6045 6.01661C12.4563 6.05821 12.3211 6.13675 12.2115 6.24488L7.76246 10.566C7.67553 10.6496 7.60642 10.7499 7.55929 10.8609C7.51216 10.972 7.48798 11.0914 7.4882 11.212C7.48545 11.3333 7.50786 11.4539 7.55402 11.5661C7.60017 11.6784 7.66907 11.7798 7.75637 11.8641C9.68836 13.8022 9.44458 16.5021 8.25612 21.1219C7.07377 25.7233 8.2805 32.0313 20.7257 35.9745C20.9042 36.0313 21.0958 36.0313 21.2743 35.9745C33.7195 32.0313 34.9262 25.7233 33.7439 21.1219C32.5554 16.5021 32.3116 13.8022 34.2436 11.8641C34.3309 11.7798 34.3998 11.6784 34.446 11.5661C34.4921 11.4539 34.5145 11.3333 34.5118 11.212ZM21.9142 21.8167V25.5527C21.9142 25.7951 21.8179 26.0277 21.6464 26.1991C21.475 26.3705 21.2425 26.4669 21 26.4669C20.7575 26.4669 20.525 26.3705 20.3536 26.1991C20.1821 26.0277 20.0858 25.7951 20.0858 25.5527V21.8167C19.5133 21.6024 19.0343 21.194 18.7322 20.6626C18.4302 20.1312 18.3243 19.5106 18.4332 18.9091C18.542 18.3076 18.8587 17.7634 19.3278 17.3716C19.7969 16.9798 20.3887 16.7651 21 16.7651C21.6112 16.7651 22.2031 16.9798 22.6722 17.3716C23.1413 17.7634 23.458 18.3076 23.5668 18.9091C23.6757 19.5106 23.5698 20.1312 23.2678 20.6626C22.9657 21.194 22.4867 21.6024 21.9142 21.8167ZM21.7801 19.3788C21.7789 19.5328 21.7321 19.6831 21.6457 19.8105C21.5592 19.938 21.437 20.0371 21.2943 20.0952C21.1517 20.1533 20.995 20.1679 20.8441 20.1371C20.6932 20.1063 20.5547 20.0315 20.4463 19.9222C20.3378 19.8128 20.2641 19.6738 20.2345 19.5227C20.2048 19.3715 20.2206 19.215 20.2799 19.0728C20.3391 18.9306 20.4391 18.8091 20.5672 18.7237C20.6954 18.6382 20.846 18.5926 21 18.5926C21.1029 18.5928 21.2048 18.6132 21.2998 18.6529C21.3947 18.6925 21.4809 18.7505 21.5534 18.8236C21.6259 18.8966 21.6833 18.9833 21.7222 19.0786C21.7611 19.1739 21.7807 19.2759 21.7801 19.3788Z" fill="#413D3D"/>
</svg>
