<svg width="28" height="29" viewBox="0 0 28 29" fill="none" xmlns="http://www.w3.org/2000/svg">
<path d="M25.7897 17.8448C25.1989 17.4953 24.459 17.4388 23.7987 17.7316C23.7987 17.7316 23.7961 17.7343 23.7858 17.7368C23.7833 17.7394 23.7781 17.7394 23.7755 17.742C23.7781 17.742 23.7755 17.742 23.7678 17.7445L23.7626 17.7471L23.7601 17.7496C23.7498 17.7522 23.7395 17.7573 23.7267 17.7625C23.4852 17.8703 22.5423 18.2891 19.3361 19.7073V19.7022C18.6167 18.6822 17.3502 19.4349 15.634 19.5839C12.9724 18.2198 10.4598 16.8839 7.70318 16.9686V22.428H8.16049L13.8845 24.6888C14.8196 25.0587 15.8807 24.9637 16.7388 24.4371L25.7949 18.8493C26.1674 18.618 26.17 18.0682 25.7897 17.8448ZM6.654 16.2963H6.19457V15.9526C6.19457 15.684 5.97686 15.4663 5.70823 15.4663H2.41163C2.143 15.4663 1.92529 15.684 1.92529 15.9526V23.7427C1.92529 24.0113 2.143 24.229 2.41163 24.229H5.70823C5.97686 24.229 6.19457 24.0113 6.19457 23.7427V23.399H6.654C6.95015 23.399 7.19022 23.1589 7.19022 22.8627V16.8326C7.19027 16.5364 6.95015 16.2963 6.654 16.2963ZM4.70685 23.4831C4.37632 23.4831 4.10556 23.2123 4.10556 22.8818C4.10556 22.5513 4.37632 22.2806 4.70685 22.2806C5.03733 22.2806 5.30809 22.5513 5.30809 22.8818C5.30809 23.2123 5.03733 23.4831 4.70685 23.4831Z" fill="#E97730"/>
<path d="M11.0443 11.7513L12.0716 11.8694C12.1949 12.4036 12.4054 12.9173 12.6982 13.3796L12.051 14.1912C11.8816 14.4069 11.9021 14.71 12.0921 14.9L12.8009 15.6088C12.991 15.7989 13.294 15.8194 13.5098 15.6499L14.3213 15.0028C14.7836 15.2956 15.2972 15.5061 15.8315 15.6294L15.9496 16.6567C16.0301 17.3678 16.9634 17.0607 17.4751 17.1292C17.7474 17.1292 17.9734 16.9289 18.0042 16.6567L18.1223 15.6294C18.6566 15.5061 19.1702 15.2955 19.6325 15.0027L20.444 15.6499C20.6597 15.8194 20.9628 15.7989 21.1529 15.6088L21.8617 14.9C22.0517 14.71 22.0723 14.4069 21.9028 14.1911L21.2556 13.3796C21.5484 12.9173 21.759 12.4037 21.8822 11.8695L22.9095 11.7513C23.1818 11.7205 23.3821 11.4946 23.3821 11.2222V10.2258C23.3821 9.95356 23.1818 9.72758 22.9095 9.6967L21.8822 9.57853C21.759 9.04439 21.5484 8.53067 21.2556 8.06845L21.9028 7.25688C22.0723 7.04116 22.0518 6.7381 21.8617 6.54806L21.1529 5.83924C20.9628 5.6492 20.6597 5.62863 20.444 5.79815L19.6325 6.4453C19.1702 6.15251 18.6566 5.94194 18.1223 5.81872L18.0042 4.79138C17.9734 4.5191 17.7474 4.31885 17.4751 4.31885H16.4787C16.2064 4.31885 15.9804 4.5192 15.9496 4.79138L15.8315 5.81872C15.2972 5.94194 14.7836 6.15251 14.3213 6.4453L13.5098 5.79815C13.294 5.62867 12.991 5.64924 12.8009 5.83929L12.0921 6.5481C11.9021 6.73815 11.8816 7.04116 12.051 7.25692L12.6982 8.06845C12.4054 8.53076 12.1949 9.04439 12.0716 9.57862L11.0443 9.69679C10.7721 9.72758 10.5718 9.95365 10.5718 10.2259V11.2223C10.5718 11.4946 10.7721 11.7205 11.0443 11.7513ZM15.324 9.0763C16.2367 8.16363 17.7129 8.16363 18.6255 9.0763C19.5321 9.98283 19.5321 11.4652 18.6255 12.3717C17.7129 13.2844 16.2367 13.2844 15.324 12.3717C14.4113 11.4652 14.4113 9.98283 15.324 9.0763Z" fill="#E97730"/>
</svg>
