<svg width="42" height="42" viewBox="0 0 42 42" fill="none" xmlns="http://www.w3.org/2000/svg">
<path d="M36.0374 21.9462C36.0809 22.0346 36.1413 22.1136 36.2153 22.1786C36.2893 22.2437 36.3754 22.2935 36.4687 22.3252C36.562 22.357 36.6606 22.3701 36.7589 22.3637C36.8572 22.3574 36.9533 22.3317 37.0417 22.2882L40.4272 20.6232C40.5156 20.5797 40.5946 20.5193 40.6596 20.4453C40.7246 20.3713 40.7745 20.2852 40.8062 20.1919C40.838 20.0987 40.8511 20.0001 40.8447 19.9017C40.8383 19.8034 40.8127 19.7073 40.7692 19.6189L35.9654 9.85994C35.9221 9.7715 35.8617 9.69245 35.7879 9.62733C35.714 9.5622 35.628 9.51226 35.5348 9.48036C35.4416 9.44846 35.3431 9.43523 35.2448 9.44142C35.1465 9.44762 35.0504 9.47311 34.9619 9.51644L31.5779 11.1822C31.4895 11.2257 31.4105 11.2861 31.3455 11.3601C31.2804 11.4341 31.2306 11.5202 31.1989 11.6135C31.1671 11.7067 31.154 11.8053 31.1604 11.9036C31.1667 12.002 31.1924 12.0981 31.2359 12.1864L36.0374 21.9462ZM38.0797 18.4107L38.7239 19.7202L37.4797 20.3322L36.8354 19.0227L38.0797 18.4107ZM14.1352 19.2664C15.2602 19.7794 17.8544 19.2214 19.5524 16.2184L26.0024 20.2684C26.8247 19.8668 27.4926 19.2066 27.9037 18.3889L28.9484 18.8067C28.5362 19.6797 27.8864 20.419 27.0734 20.9397L32.0504 24.0544C32.6842 23.0343 33.5652 22.1905 34.6117 21.6012L30.6577 13.5589C29.5912 13.8889 27.5362 13.9384 23.7442 12.3987C18.1192 10.1134 14.7127 15.7114 13.7692 18.3394C13.7038 18.5118 13.7051 18.7023 13.7728 18.8738C13.8405 19.0452 13.9697 19.1852 14.1352 19.2664Z" fill="#413D3D"/>
<path d="M16.6499 31.8905C16.9608 32.1031 17.3431 32.184 17.7134 32.1156C18.0837 32.0472 18.4119 31.8349 18.6262 31.5253L19.0289 30.9395C19.1381 30.7859 19.2156 30.6121 19.257 30.4282C19.2984 30.2444 19.3028 30.0541 19.2699 29.8686C19.2371 29.683 19.1677 29.5058 19.0657 29.3473C18.9637 29.1888 18.8313 29.0522 18.676 28.9453C18.5207 28.8385 18.3458 28.7637 18.1613 28.7251C17.9769 28.6865 17.7866 28.685 17.6015 28.7207C17.4165 28.7563 17.2403 28.8284 17.0834 28.9328C16.9265 29.0371 16.7919 29.1717 16.6874 29.3285L17.0902 28.7435C17.196 28.5898 17.2704 28.4168 17.3093 28.2343C17.3483 28.0518 17.3508 27.8635 17.317 27.68C17.2831 27.4965 17.2134 27.3215 17.1119 27.165C17.0104 27.0084 16.879 26.8734 16.7253 26.7676C16.5716 26.6619 16.3986 26.5874 16.2161 26.5485C16.0336 26.5096 15.8453 26.507 15.6618 26.5409C15.4783 26.5747 15.3033 26.6444 15.1468 26.7459C14.9902 26.8475 14.8552 26.9788 14.7494 27.1325C14.9563 26.8219 15.0326 26.4423 14.962 26.0759C14.8914 25.7094 14.6795 25.3854 14.372 25.1739C14.0646 24.9624 13.6863 24.8803 13.3188 24.9453C12.9513 25.0103 12.6241 25.2173 12.4079 25.5215L12.0052 26.1065C12.2187 25.796 12.3002 25.4134 12.2316 25.0429C12.163 24.6723 11.9501 24.3442 11.6396 24.1306C11.3291 23.9171 10.9464 23.8357 10.5759 23.9042C10.2053 23.9728 9.87721 24.1858 9.66368 24.4963L8.85818 25.6663C8.67942 25.9765 8.62403 26.3427 8.70301 26.692C8.78198 27.0412 8.98955 27.3479 9.28441 27.5511C9.57927 27.7542 9.9398 27.8389 10.2943 27.7883C10.6488 27.7377 10.9712 27.5556 11.1974 27.278C10.9839 27.5885 10.9025 27.9711 10.971 28.3417C11.0396 28.7122 11.2526 29.0404 11.5631 29.2539C11.8736 29.4674 12.2562 29.5489 12.6267 29.4803C12.9973 29.4117 13.3254 29.1988 13.5389 28.8883L13.9417 28.3033C13.8358 28.4571 13.7612 28.6303 13.7222 28.813C13.6832 28.9956 13.6806 29.1842 13.7144 29.3679C13.7829 29.7389 13.9959 30.0675 14.3066 30.2814C14.6173 30.4953 15.0002 30.5771 15.3712 30.5086C15.7422 30.4402 16.0707 30.2272 16.2847 29.9165C16.0728 30.2272 15.9923 30.609 16.0607 30.9788C16.1291 31.3485 16.3409 31.6762 16.6499 31.8905ZM1.53068 21.4295L4.68068 23.2363C4.85289 23.3352 5.05731 23.3617 5.24909 23.3101C5.44087 23.2585 5.60435 23.133 5.70368 22.961L11.1457 13.5425C11.1951 13.457 11.2271 13.3626 11.2399 13.2647C11.2527 13.1668 11.2461 13.0674 11.2204 12.972C11.1947 12.8767 11.1504 12.7874 11.0901 12.7092C11.0298 12.6311 10.9546 12.5656 10.8689 12.5165L7.71893 10.7083C7.54669 10.6097 7.34239 10.5833 7.15078 10.6351C6.95917 10.6868 6.79588 10.8124 6.69668 10.9843L1.25393 20.4043C1.20466 20.4897 1.17274 20.5841 1.15998 20.6819C1.14723 20.7797 1.1539 20.8791 1.1796 20.9743C1.20531 21.0695 1.24955 21.1588 1.3098 21.2369C1.37004 21.315 1.4451 21.3805 1.53068 21.4295Z" fill="#413D3D"/>
<path d="M8.3797 24.3769L8.7367 23.8579C8.97167 23.5179 9.28574 23.2402 9.65187 23.0485C10.018 22.8569 10.4252 22.7571 10.8385 22.7578C11.2517 22.7585 11.6586 22.8596 12.0241 23.0524C12.3896 23.2452 12.7028 23.5239 12.9367 23.8646C12.9959 23.8496 13.0559 23.8361 13.1159 23.8249C13.6965 23.7165 14.2966 23.8138 14.8132 24.1C15.3298 24.3862 15.7305 24.8435 15.9464 25.3931C16.5368 25.3982 17.107 25.609 17.5587 25.9891C18.0105 26.3693 18.3156 26.895 18.4214 27.4759C18.4327 27.5359 18.4417 27.5966 18.4484 27.6566C18.8356 27.7488 19.1956 27.9308 19.4994 28.1878C19.8032 28.4448 20.0423 28.7697 20.1973 29.1362C20.3524 29.5027 20.4191 29.9005 20.392 30.2975C20.3649 30.6945 20.2448 31.0796 20.0414 31.4216L21.5999 32.3569C21.9225 32.5505 22.3086 32.6087 22.6739 32.5187C23.0392 32.4288 23.3541 32.1981 23.5499 31.8769C23.6831 31.6545 23.7556 31.401 23.7599 31.1419C23.7578 30.9001 23.6949 30.6628 23.5769 30.4518C23.459 30.2407 23.2898 30.0628 23.0849 29.9344L24.2849 30.6544C24.4446 30.7539 24.6224 30.8206 24.8081 30.8507C24.9938 30.8808 25.1836 30.8736 25.3664 30.8297C25.5493 30.7857 25.7216 30.7058 25.8734 30.5946C26.0251 30.4834 26.1532 30.3432 26.2501 30.182C26.3471 30.0209 26.4111 29.842 26.4383 29.6559C26.4655 29.4698 26.4555 29.2801 26.4087 29.098C26.3619 28.9158 26.2793 28.7447 26.1658 28.5947C26.0523 28.4448 25.9101 28.3189 25.7474 28.2244L26.9699 28.9519C27.2922 29.1468 27.6787 29.2058 28.0444 29.1157C28.4101 29.0257 28.725 28.7941 28.9199 28.4719C29.1149 28.1496 29.1738 27.7632 29.0838 27.3975C28.9938 27.0318 28.7622 26.7168 28.4399 26.5219L30.2549 27.6169C30.415 27.7139 30.5926 27.7785 30.7776 27.8069C30.9626 27.8353 31.1514 27.8269 31.3331 27.7824C31.5149 27.7378 31.6861 27.6578 31.837 27.5471C31.9879 27.4363 32.1154 27.2969 32.2124 27.1369C32.4064 26.8124 32.4639 26.4243 32.3726 26.0575C32.2812 25.6907 32.0484 25.375 31.7249 25.1794L19.8914 17.7619C17.8627 20.4911 15.0757 20.9351 13.6664 20.2924C13.2442 20.0929 12.9116 19.7429 12.7338 19.3111C12.556 18.8793 12.5457 18.3966 12.7049 17.9576C13.0323 17.0762 13.4509 16.2314 13.9537 15.4369C13.2464 15.1706 12.5776 14.8117 11.9647 14.3696L6.8407 23.2414L8.3797 24.3769Z" fill="#413D3D"/>
</svg>
