<svg width="28" height="29" viewBox="0 0 28 29" fill="none" xmlns="http://www.w3.org/2000/svg">
<path fill-rule="evenodd" clip-rule="evenodd" d="M6.69025 18.7585C6.42191 18.72 6.13667 18.6984 5.83333 18.6984C3.59917 18.6984 2.35142 19.8773 1.87308 20.4647C1.7955 20.5657 1.75409 20.6893 1.75409 20.8171C1.75409 20.8206 1.75408 20.8241 1.7535 20.827C1.75 21.0428 1.75 21.3287 1.75 21.6151C1.75 21.9371 2.01133 22.1984 2.33333 22.1984H6.517C6.45108 22.0129 6.41667 21.8157 6.41667 21.6151C6.41667 20.9512 6.41667 20.1602 6.419 19.693C6.419 19.3605 6.51408 19.0367 6.69025 18.7585ZM19.8333 22.1984H8.16667C8.01208 22.1984 7.86333 22.1372 7.75425 22.0275C7.64458 21.9184 7.58333 21.7697 7.58333 21.6151C7.58333 20.953 7.58333 20.1655 7.58567 19.6965C7.58567 19.6953 7.58567 19.6942 7.58567 19.693C7.58567 19.5588 7.63234 19.4293 7.71692 19.3255C8.44084 18.4989 10.6283 16.3651 14 16.3651C17.8162 16.3651 19.7324 18.4948 20.3187 19.2981C20.3834 19.3967 20.4167 19.5081 20.4167 19.6218V21.6151C20.4167 21.7697 20.3554 21.9184 20.2458 22.0275C20.1367 22.1372 19.9879 22.1984 19.8333 22.1984ZM21.483 22.1984H25.6667C25.9887 22.1984 26.25 21.9371 26.25 21.6151V20.8165C26.25 20.6876 26.2074 20.5627 26.1292 20.4607C25.6486 19.8773 24.4002 18.6984 22.1667 18.6984C21.8791 18.6984 21.6078 18.7177 21.3523 18.7527C21.5034 19.0169 21.5833 19.3167 21.5833 19.623V21.6151C21.5833 21.8157 21.5489 22.0129 21.483 22.1984ZM5.83333 11.6984C4.22333 11.6984 2.91667 13.0051 2.91667 14.6151C2.91667 16.2251 4.22333 17.5317 5.83333 17.5317C7.44333 17.5317 8.75 16.2251 8.75 14.6151C8.75 13.0051 7.44333 11.6984 5.83333 11.6984ZM22.1667 11.6984C20.5567 11.6984 19.25 13.0051 19.25 14.6151C19.25 16.2251 20.5567 17.5317 22.1667 17.5317C23.7767 17.5317 25.0833 16.2251 25.0833 14.6151C25.0833 13.0051 23.7767 11.6984 22.1667 11.6984ZM14 7.03174C11.7466 7.03174 9.91667 8.86166 9.91667 11.1151C9.91667 13.3685 11.7466 15.1984 14 15.1984C16.2534 15.1984 18.0833 13.3685 18.0833 11.1151C18.0833 8.86166 16.2534 7.03174 14 7.03174Z" fill="#E97730"/>
</svg>
