<svg width="30" height="19" viewBox="0 0 30 19" fill="none" xmlns="http://www.w3.org/2000/svg">
<path d="M5.81822 10.9522C5.61055 12.0736 5.38211 13.195 5.17444 14.3164C5.11214 14.6695 4.92524 15.0641 5.00831 15.3756C5.09137 15.6871 5.44442 15.9155 5.69362 16.1855C5.81822 16.3101 5.92206 16.4347 5.98436 16.497C6.35817 16.1647 6.73197 15.8324 7.08501 15.5002C7.14732 15.4379 7.12655 15.2717 7.10578 15.1679C6.87734 13.8388 6.62814 12.5305 6.37893 11.2222C6.35817 11.1183 6.3374 11.0352 6.3374 10.9106C7.16808 10.9522 7.9157 11.0976 8.66331 11.3883C8.78791 11.4506 8.89175 11.4714 8.99559 11.326C10.1378 9.9969 11.6538 9.33235 13.3567 9.02084C13.7305 8.97931 14.0835 8.93777 14.4989 8.89624C14.395 9.43618 14.312 9.91383 14.2289 10.3915C13.9797 11.6998 13.7097 13.0289 13.4605 14.3372C13.4397 14.441 13.4605 14.6072 13.5228 14.6695C13.9589 15.0848 14.4158 15.4794 14.7896 15.8324C15.1842 15.4794 15.6618 15.0641 16.1187 14.628C16.181 14.5657 16.1602 14.4203 16.1395 14.3164C15.828 12.6135 15.4957 10.8899 15.1634 9.18698C15.1634 9.10391 15.1634 9.04161 15.1426 8.89624C15.5787 8.93777 15.9733 8.97931 16.3887 9.04161C18.0708 9.35312 19.5453 10.0384 20.6874 11.3468C20.729 11.4091 20.8951 11.4298 20.9574 11.3883C21.6635 11.0976 22.3903 10.9729 23.138 10.9106C23.1795 10.9106 23.221 10.9106 23.3249 10.9106C23.221 11.4091 23.138 11.8659 23.0549 12.3436C22.868 13.2989 22.6811 14.2334 22.515 15.1887C22.4942 15.3133 22.5357 15.4794 22.6188 15.5625C22.9303 15.874 23.2833 16.1647 23.5533 16.4139C23.8648 16.1439 24.2594 15.8117 24.6332 15.4586C24.6747 15.4171 24.654 15.2925 24.6332 15.2302C24.3632 13.8388 24.0932 12.4474 23.844 11.056C23.844 11.0352 23.844 10.9937 23.844 10.9522C24.4878 10.9729 25.1108 11.0768 25.7131 11.2637C26.8137 11.6167 27.769 12.1982 28.4336 13.1535C28.8489 13.735 29.0566 14.3995 29.0566 15.1264C29.0566 16.227 29.0566 17.3069 29.0566 18.4076C29.0566 18.4906 29.0566 18.5737 29.0358 18.6775C19.566 18.6775 10.117 18.6775 0.605686 18.6775C0.605686 18.5737 0.605686 18.4699 0.605686 18.3868C0.605686 17.3692 0.626453 16.3516 0.605686 15.334C0.564152 14.0465 1.1041 13.0497 2.08015 12.2605C3.13927 11.4091 4.38529 11.0352 5.73515 10.9522C5.75592 10.9106 5.77669 10.9314 5.81822 10.9522Z" fill="#1BB899"/>
<path d="M14.8103 0.174072C17.0324 0.174072 18.8391 1.98081 18.8391 4.20288C18.8391 6.42496 17.0532 8.2317 14.8103 8.2317C12.5675 8.2317 10.7607 6.44573 10.7607 4.20288C10.7815 1.98081 12.5882 0.174072 14.8103 0.174072Z" fill="#1BB899"/>
<path d="M26.7515 7.17275C26.7515 8.95872 25.3186 10.3917 23.5326 10.3917C21.7882 10.3917 20.3345 8.93795 20.3345 7.17275C20.3345 5.40755 21.7882 3.95386 23.5534 3.95386C25.3393 3.97462 26.7723 5.40755 26.7515 7.17275Z" fill="#1BB899"/>
<path d="M2.86928 7.15197C2.86928 5.38677 4.32297 3.97461 6.08817 3.97461C7.85338 3.97461 9.2863 5.4283 9.2863 7.17274C9.2863 8.93794 7.83261 10.3916 6.06741 10.3916C4.28144 10.3709 2.86928 8.93794 2.86928 7.15197Z" fill="#1BB899"/>
</svg>
