<svg width="29" height="27" viewBox="0 0 29 27" fill="none" xmlns="http://www.w3.org/2000/svg">
<path d="M28.2323 24.7162C28.2053 24.8243 28.1512 24.9054 28.1242 25.0135C27.8539 25.6621 27.3675 26.0404 26.6648 26.0675C25.6919 26.0945 24.719 26.0675 23.7731 26.0675C22.557 26.0675 21.3409 26.0404 20.1517 26.0675C18.9897 26.1215 18.314 25.2567 18.3411 24.2838C18.3681 20.3111 18.3411 16.3654 18.3411 12.3927C18.3411 11.3387 19.0167 10.6631 20.0707 10.6631C22.2057 10.6631 24.3136 10.6631 26.4486 10.6631C27.3945 10.6631 27.908 11.0414 28.2053 11.9333C28.2053 11.9603 28.2323 11.9873 28.2593 11.9873C28.2323 16.2573 28.2323 20.4732 28.2323 24.7162ZM19.4221 22.7704C21.9895 22.7704 24.5569 22.7704 27.1242 22.7704C27.1242 19.4733 27.1242 16.1762 27.1242 12.8792C24.5569 12.8792 21.9895 12.8792 19.4221 12.8792C19.4221 16.1762 19.4221 19.4733 19.4221 22.7704ZM22.7462 24.9865C23.1245 24.9865 23.4758 24.9865 23.8272 24.9865C23.8272 24.6081 23.8272 24.2568 23.8272 23.9054C23.4488 23.9054 23.1245 23.9054 22.7462 23.9054C22.7462 24.2568 22.7462 24.6081 22.7462 24.9865Z" fill="#1BB899"/>
<path d="M17.206 15.0953C17.206 16.5547 17.206 17.987 17.206 19.4734C17.0979 19.4734 17.0168 19.5005 16.9357 19.5005C12.0712 19.5005 7.17964 19.5005 2.3151 19.5005C1.26112 19.4734 0.720612 18.9329 0.720612 17.906C0.720612 12.6901 0.720612 7.50125 0.720612 2.28539C0.720612 1.31248 1.26112 0.771973 2.23402 0.771973C9.28761 0.771973 16.3142 0.771973 23.3677 0.771973C23.5569 0.771973 23.7731 0.771973 23.9623 0.826023C24.5569 0.988174 24.9352 1.50165 24.9352 2.17728C24.9352 4.5555 24.9352 6.93372 24.9352 9.33897C24.9352 9.39302 24.9082 9.44707 24.9082 9.52814C24.5569 9.52814 24.2326 9.52814 23.8542 9.52814C23.8542 9.42004 23.8542 9.31194 23.8542 9.20384C23.8542 6.9067 23.8542 4.60955 23.8542 2.28539C23.8542 1.88001 23.8002 1.82596 23.3948 1.82596C16.3682 1.82596 9.36868 1.82596 2.34213 1.82596C1.85567 1.85298 1.80162 1.90703 1.80162 2.36646C1.80162 6.50132 1.80162 10.6362 1.80162 14.744C1.80162 15.0143 1.8827 15.0683 2.12592 15.0683C7.04451 15.0683 11.9361 15.0683 16.8547 15.0683C16.9628 15.0953 17.0709 15.0953 17.206 15.0953Z" fill="#1BB899"/>
<path d="M9.53087 22.7979C9.53087 22.0412 9.53087 21.3386 9.53087 20.6089C11.7199 20.6089 13.909 20.6089 16.098 20.6089C16.098 21.3115 16.098 22.0412 16.098 22.7709C16.4764 22.7709 16.8007 22.7709 17.179 22.7709C17.179 23.1493 17.179 23.4736 17.179 23.8519C13.909 23.8519 10.6389 23.8519 7.34183 23.8519C7.34183 23.5006 7.34183 23.1493 7.34183 22.7979C8.07151 22.7979 8.77416 22.7979 9.53087 22.7979Z" fill="#1BB899"/>
</svg>
