<svg width="31" height="29" viewBox="0 0 31 29" fill="none" xmlns="http://www.w3.org/2000/svg">
<path d="M26.6853 28.1719C19.3023 28.1719 11.8923 28.1719 4.48242 28.1719C4.48242 28.0913 4.48242 28.0108 4.48242 27.9571C4.48242 24.1179 4.48242 20.3055 4.48242 16.4663C4.48242 16.3052 4.53612 16.2247 4.64351 16.1173C8.24108 13.003 11.8386 9.88869 15.4362 6.77437C15.4899 6.72068 15.5436 6.69383 15.5973 6.64014C16.0806 7.04285 16.537 7.44556 16.9934 7.84828C19.9734 10.4525 22.9804 13.0298 25.9604 15.6341C26.1752 15.822 26.39 15.9831 26.5779 16.171C26.6316 16.2247 26.6853 16.3052 26.6853 16.3858C26.6853 20.2518 26.6853 24.1447 26.6853 28.0108C26.6853 28.0645 26.6853 28.1182 26.6853 28.1719ZM19.6244 20.1444C19.6244 20.2787 19.5976 20.3861 19.5976 20.4935C19.4902 21.7016 19.3828 22.8829 19.2486 24.091C19.2486 24.2253 19.2754 24.279 19.4097 24.3058C19.9734 24.4669 20.5372 24.628 21.0742 24.7622C21.289 24.8159 21.5038 24.8428 21.6917 24.7891C22.6045 24.6011 22.9804 23.5541 22.4434 22.8023C21.3158 21.272 20.2151 19.7417 19.1143 18.2383C18.7653 17.7819 18.3089 17.5402 17.7183 17.5134C16.2685 17.5134 14.8187 17.5134 13.3958 17.5134C12.832 17.5134 12.3488 17.7819 11.9997 18.2383C11.9192 18.3188 11.8655 18.4262 11.8118 18.5067C10.7916 19.9297 9.74454 21.3794 8.69748 22.8023C8.34847 23.2588 8.34847 23.8494 8.67064 24.279C8.99281 24.7354 9.52976 24.9233 10.0936 24.7622C10.6842 24.6011 11.2748 24.4401 11.8386 24.279C11.9729 24.2521 11.9997 24.1984 11.9997 24.0642C11.946 23.0977 11.8923 22.1312 11.8386 21.1647C11.8118 20.8425 11.785 20.4935 11.785 20.1444C14.416 20.1444 17.0202 20.1444 19.6244 20.1444ZM13.3153 13.54C13.3153 14.4259 13.6911 15.4193 14.2549 16.0636C15.0067 16.9227 16.1611 16.9764 16.9665 16.171C17.235 15.9025 17.4498 15.5804 17.6109 15.2582C17.9599 14.5602 18.1478 13.8084 17.9867 13.0298C17.772 11.7949 16.6712 10.9894 15.4094 11.1237C14.2281 11.2311 13.3153 12.2781 13.3153 13.54ZM15.5436 26.1583C15.8389 26.1583 16.1343 26.1583 16.4296 26.1583C17.2082 26.1583 18.0136 26.1583 18.7922 26.1583C18.9532 26.1583 19.0069 26.1046 19.0069 25.9435C19.0069 25.8361 19.0069 25.7287 19.0069 25.6213C19.0338 25.4334 18.9532 25.4066 18.7922 25.4066C17.3961 25.4066 16.0269 25.4066 14.6308 25.4066C13.8791 25.4066 13.1273 25.4066 12.3488 25.4066C12.1877 25.4066 12.134 25.4603 12.134 25.6213C12.134 25.7287 12.134 25.863 12.134 25.9704C12.1071 26.1314 12.1877 26.1583 12.3488 26.1583C13.4227 26.1583 14.4697 26.1583 15.5436 26.1583Z" fill="#1BB899"/>
<path d="M15.5974 4.35804C11.2212 8.27778 6.84509 12.1707 2.46894 16.0904C1.85145 15.3924 1.2608 14.7212 0.643311 14.05C0.938633 13.7815 1.23396 13.5399 1.50243 13.2714C3.38176 11.58 5.26109 9.91548 7.14041 8.22409C7.2478 8.1167 7.3015 8.00931 7.3015 7.87507C7.3015 6.15683 7.3015 4.46543 7.3015 2.74719C7.3015 2.66665 7.3015 2.58611 7.3015 2.47872C7.38204 2.47872 7.43574 2.47872 7.48943 2.47872C8.50964 2.47872 9.503 2.47872 10.5232 2.47872C10.6843 2.47872 10.738 2.53241 10.738 2.6935C10.738 3.39153 10.738 4.06272 10.738 4.76076C10.738 4.81445 10.738 4.89499 10.738 5.02923C12.3757 3.55262 13.9597 2.1297 15.5974 0.679932C20.5105 5.05608 25.3967 9.43223 30.3367 13.8084C29.7192 14.4796 29.1285 15.1508 28.5111 15.8488C24.1886 12.0364 19.893 8.19724 15.5974 4.35804Z" fill="#1BB899"/>
</svg>
