<svg width="33" height="33" viewBox="0 0 33 33" fill="none" xmlns="http://www.w3.org/2000/svg">
<path d="M16.0713 21.7032C10.1788 21.7032 5.41405 16.9594 5.41405 11.0646C5.41405 5.16988 10.207 0.397949 16.1277 0.397949C22.0484 0.397949 26.8132 5.16988 26.8414 11.0646C26.8132 16.9594 22.0202 21.7032 16.0713 21.7032ZM16.0995 19.9909C21.0334 19.9909 25.037 16.005 25.0652 11.1208C25.0933 6.18041 21.0616 2.1383 16.0713 2.16637C11.1374 2.16637 7.10568 6.18041 7.10568 11.0927C7.13388 15.9769 11.1656 19.9909 16.0995 19.9909Z" fill="#1BB899"/>
<path d="M3.8352 11.5419C4.06075 11.8787 4.22991 12.1033 4.39907 12.3559C4.45546 12.4682 4.51185 12.5805 4.48366 12.6927C4.2863 14.0401 4.11714 15.3875 3.86339 16.6787C3.66603 17.6612 4.03255 18.3348 4.68101 18.9805C5.86515 18.2226 5.69599 17.0998 5.44225 15.8647C5.97793 16.7068 6.42903 17.4647 6.96471 18.1384C7.38762 18.6998 7.9233 19.2331 8.45899 19.7103C8.76912 19.991 8.8537 20.2436 8.68454 20.6085C8.57176 20.805 8.57176 21.0576 8.45899 21.2261C7.61317 22.3769 7.64136 23.7524 7.4722 25.0717C7.33123 26.1384 7.19026 27.2331 7.07749 28.3278C6.99291 29.198 6.48542 29.7033 5.69599 29.8436C5.04753 29.9559 4.37088 29.9559 3.75062 29.8436C2.96119 29.7033 2.48189 29.198 2.39731 28.2998C2.19996 26.3629 1.94621 24.4822 1.69247 22.6015C1.69247 22.405 1.66427 22.1805 1.5515 22.0401C0.480131 20.4401 0.310968 18.6155 0.198193 16.791C0.169999 16.1734 0.169999 15.5559 0.198193 14.9103C0.282775 12.8892 1.88982 11.4576 3.8352 11.5419Z" fill="#1BB899"/>
<path d="M11.6167 21.7593C13.1955 22.3487 14.6334 22.6575 16.1277 22.6294C17.622 22.6294 19.0599 22.3207 20.6387 21.7031C20.4132 22.3207 20.2722 22.8821 19.9621 23.3031C19.511 23.9207 19.4264 24.5663 19.3418 25.268C19.1444 27.0365 18.8907 28.7768 18.7215 30.5452C18.637 31.4996 18.1295 32.0891 17.2555 32.2856C16.6634 32.4259 16.0149 32.454 15.3947 32.3698C14.4079 32.2294 13.6185 31.7522 13.5057 30.4329C13.3365 28.3838 13.0264 26.3628 12.7726 24.3137C12.7444 24.033 12.6035 23.7522 12.4907 23.4996C12.237 22.9663 11.955 22.4329 11.6167 21.7593Z" fill="#1BB899"/>
<path d="M30.4784 22.9665C29.7453 22.2647 29.0405 21.5068 28.2511 20.8612C27.8845 20.4963 27.4052 20.1595 26.9259 20.0753C26.2211 19.991 25.7982 19.6261 25.3753 19.177C25.2061 19.0086 25.0651 18.8402 24.9242 18.6998C25.5726 17.6893 26.1929 16.6788 26.8696 15.6402C26.7568 16.8191 26.2775 18.1103 27.6308 18.9524C28.2511 18.391 28.6458 17.7735 28.4766 16.8472C28.2511 15.4156 28.0537 13.9279 27.8563 12.5524C28.0537 12.2156 28.2229 11.9068 28.4202 11.57C30.0837 11.3174 31.9162 12.7209 32.0854 14.5735C32.2546 16.5665 32.1418 18.5595 31.5497 20.4682C31.3806 21.0296 31.0704 21.5349 30.8167 22.0402C30.7321 22.3489 30.6193 22.6296 30.4784 22.9665Z" fill="#1BB899"/>
<path d="M22.8942 20.4682C23.3735 20.0472 23.7964 19.7103 24.3603 19.2332C24.614 19.5139 24.8114 19.8226 25.0651 20.1033C25.4599 20.5525 25.8546 21.0016 26.6158 20.9174C26.8977 20.8893 27.2925 21.1419 27.518 21.3665C28.8995 22.6858 30.2528 24.0332 31.6061 25.3805C32.311 26.0823 32.311 27.177 31.6343 27.8507C30.9577 28.5525 29.8581 28.5244 29.1251 27.7946C27.8281 26.5314 26.503 25.2121 25.1779 23.9209C24.755 23.4998 24.5577 23.0507 24.5859 22.4612C24.5859 22.2647 24.4731 22.0121 24.3321 21.8718C23.881 21.3946 23.4017 20.9454 22.8942 20.4682Z" fill="#1BB899"/>
<path d="M24.8396 24.9033C26.503 26.3349 27.8 27.991 29.5762 29.2542C29.407 29.3945 29.2096 29.563 28.9841 29.6752C28.1947 30.0682 27.377 30.0682 26.5312 29.8437C25.77 29.6191 25.2907 29.1419 25.2343 28.3279C25.1497 27.177 24.9806 26.0823 24.8396 24.9033Z" fill="#1BB899"/>
<path d="M27.8845 11.0084C27.518 9.35222 27.1515 7.75222 26.7568 6.09608C27.2925 5.73117 28.1101 5.78731 28.7867 6.2645C29.6889 6.93818 30.0555 8.1452 29.7171 9.29608C29.4352 10.3347 28.674 10.9803 27.8845 11.0084Z" fill="#1BB899"/>
<path d="M5.44225 6.01197C5.04753 7.69618 4.68101 9.32425 4.2863 11.0085C3.52507 10.8962 2.96119 10.3348 2.65106 9.4646C2.22815 8.36986 2.53828 7.13477 3.3559 6.43302C4.03255 5.84354 4.76559 5.75933 5.44225 6.01197Z" fill="#1BB899"/>
<path d="M17.2273 19.0928C16.9453 17.0436 16.6634 15.0787 16.4096 13.2542C16.6352 12.8612 16.8044 12.5524 17.0299 12.1314C18.6933 11.8507 20.7797 13.3103 21.0334 15.191C21.3436 17.5489 21.4563 17.3524 19.2854 18.391C18.6652 18.7279 17.9321 18.8682 17.2273 19.0928Z" fill="#1BB899"/>
<path d="M15.1691 12.1033C15.3947 12.4963 15.5638 12.8331 15.8458 13.3103C15.592 15.0506 15.3101 17.0156 15 19.0085C13.6185 18.8682 12.3779 18.3349 11.2502 17.4927C11.1656 17.4366 11.1374 17.2963 11.1092 17.184C10.6581 14.2927 12.3215 12.2436 15.1691 12.1033Z" fill="#1BB899"/>
<path d="M18.6088 8.90326C18.6088 8.95941 18.6088 9.1559 18.5524 9.35239C18.2704 10.812 17.0863 11.7945 15.8176 11.598C14.4925 11.4015 13.4775 10.0261 13.6185 8.56642C13.7594 7.13484 14.6616 6.04011 15.8176 5.89976C17.3682 5.73134 18.637 7.02256 18.6088 8.90326Z" fill="#1BB899"/>
<path d="M8.28982 12.5803C8.96647 13.254 9.27661 14.0961 9.24841 15.0505C9.19202 15.0786 9.13564 15.1066 9.07925 15.1347C8.74092 14.2926 8.43079 13.4786 8.12066 12.6645C8.17705 12.6365 8.23343 12.6084 8.28982 12.5803Z" fill="#1BB899"/>
<path d="M23.0634 14.8821C23.0916 14.1242 23.3171 13.4225 23.8246 12.833C23.881 12.8611 23.9374 12.8891 23.9938 12.8891C23.74 13.5909 23.4863 14.2646 23.2325 14.9383C23.1762 14.9383 23.1198 14.9102 23.0634 14.8821Z" fill="#1BB899"/>
</svg>
