<svg width="42" height="43" viewBox="0 0 42 43" fill="none" xmlns="http://www.w3.org/2000/svg">
<path d="M37.5775 11.5437C37.5775 10.1637 36.4975 9.045 35.1188 8.99721L35.0514 10.9423C35.3766 10.9535 35.6314 11.2177 35.6314 11.5437C35.6314 11.8756 35.3614 12.1456 35.0295 12.1456C34.9708 12.1456 34.9142 12.1371 34.8601 12.1213C34.4872 11.63 34.0772 11.1611 33.6304 10.7187C31.1882 8.30065 27.9627 6.96902 24.5482 6.96902H18.8029C18.1778 6.96902 17.5516 7.01474 16.9338 7.1052C16.2625 6.12603 15.2978 5.38817 14.1577 4.99427C12.7803 4.5184 11.2944 4.59648 9.974 5.21417L9.09256 5.62649L10.9667 9.63287C9.46732 10.7814 8.23569 12.2398 7.35814 13.9075H4.42224V25.8784H7.35814C8.83795 28.69 11.286 30.8262 14.166 31.9448V34.7632H16.1122V32.5292C16.9569 32.7115 17.8257 32.8095 18.7074 32.8161C18.2816 31.6517 18.0588 30.4091 18.0588 29.1321C18.0588 26.273 19.1722 23.585 21.194 21.5632C23.2158 19.5415 25.9038 18.4281 28.7628 18.4281C31.622 18.4281 34.31 19.5415 36.3318 21.5632C36.6423 21.8738 36.9312 22.2001 37.1981 22.5403C37.3795 21.6764 37.472 20.7925 37.472 19.8931C37.472 17.7729 36.9598 15.7301 35.9948 13.9013C36.9225 13.5201 37.5775 12.6072 37.5775 11.5437ZM14.0369 15.4129H12.0906V13.4667H14.0369V15.4129ZM30.0067 14.4344C28.5393 12.9671 26.6008 12.159 24.548 12.159H21.9512V10.2128H24.548C27.1206 10.2128 29.5479 11.2234 31.3827 13.0583L30.0067 14.4344Z" fill="#413D3D"/>
<path d="M38.5383 25.6267C38.0894 24.81 37.5226 24.0519 36.8454 23.3747C35.4955 22.0249 33.8258 21.1109 32.0071 20.7035C31.2956 20.5441 30.561 20.4623 29.8141 20.4623C29.5651 20.4623 29.3176 20.4713 29.0716 20.4894C26.6953 20.6636 24.4849 21.6726 22.7828 23.3747C22.1079 24.0496 21.5426 24.8049 21.0945 25.6184C20.2956 27.0684 19.8704 28.7044 19.8704 30.406C19.8704 31.8753 20.1876 33.2958 20.7883 34.5899C21.2735 35.6351 21.9436 36.5981 22.7827 37.4372C23.8978 38.5524 25.2313 39.37 26.6865 39.8503C26.8397 39.9009 26.9943 39.9477 27.15 39.9907C27.3057 40.0338 27.4629 40.073 27.621 40.1085C27.7791 40.1439 27.9384 40.1755 28.0986 40.2032C28.6596 40.3001 29.233 40.3497 29.814 40.3497C32.4701 40.3497 34.9671 39.3154 36.8452 37.4372C37.9603 36.3221 38.778 34.9887 39.2583 33.5335C39.3088 33.3802 39.3556 33.2257 39.3987 33.0699C39.4417 32.9141 39.481 32.7571 39.5165 32.599C39.5519 32.4409 39.5835 32.2817 39.6111 32.1214C39.7081 31.5604 39.7577 30.987 39.7577 30.406C39.7577 28.7077 39.3342 27.0747 38.5383 25.6267ZM29.6514 29.338H29.9768C31.3991 29.338 32.5561 30.495 32.5561 31.9172C32.5561 33.0209 31.859 33.9646 30.8821 34.3321V35.8221H28.7461V34.3321C27.7692 33.9646 27.0722 33.021 27.0722 31.9172H29.2082C29.2082 32.1616 29.407 32.3604 29.6514 32.3604H29.9768C30.2212 32.3604 30.42 32.1616 30.42 31.9172C30.42 31.6729 30.2212 31.474 29.9768 31.474H29.6514C28.2292 31.474 27.0722 30.317 27.0722 28.8948C27.0722 27.7911 27.7692 26.8474 28.7461 26.4801V24.99H30.8821V26.4801C31.859 26.8475 32.5561 27.7911 32.5561 28.8948H30.42C30.42 28.6505 30.2212 28.4516 29.9768 28.4516H29.6514C29.4071 28.4516 29.2082 28.6504 29.2082 28.8948C29.2082 29.1392 29.407 29.338 29.6514 29.338Z" fill="#413D3D"/>
</svg>
