<svg width="42" height="43" viewBox="0 0 42 43" fill="none" xmlns="http://www.w3.org/2000/svg">
<path d="M38.6847 26.3445C37.7984 25.8204 36.6886 25.7356 35.6981 26.1749C35.6981 26.1749 35.6943 26.1788 35.6788 26.1826C35.675 26.1864 35.6673 26.1864 35.6634 26.1903C35.6672 26.1903 35.6634 26.1903 35.6518 26.1942L35.6441 26.198L35.6403 26.2018C35.6249 26.2056 35.6094 26.2134 35.5902 26.2211C35.2279 26.3829 33.8136 27.0111 29.0043 29.1384V29.1306C27.9252 27.6007 26.0254 28.7298 23.4511 28.9533C19.4588 26.9071 15.6899 24.9032 11.5549 25.0303V33.2193H12.2409L20.8268 36.6106C22.2296 37.1655 23.8211 37.023 25.1083 36.233L38.6924 27.8513C39.2512 27.5044 39.2551 26.6797 38.6847 26.3445ZM9.98112 24.0219H9.29197V23.5064C9.29197 23.1034 8.96542 22.7769 8.56247 22.7769H3.61757C3.21462 22.7769 2.88806 23.1034 2.88806 23.5064V35.1914C2.88806 35.5943 3.21462 35.9209 3.61757 35.9209H8.56247C8.96542 35.9209 9.29197 35.5943 9.29197 35.1914V34.6759H9.98112C10.4254 34.6759 10.7855 34.3157 10.7855 33.8715V24.8263C10.7855 24.3821 10.4254 24.0219 9.98112 24.0219ZM7.0604 34.802C6.5646 34.802 6.15846 34.3959 6.15846 33.9001C6.15846 33.4044 6.5646 32.9982 7.0604 32.9982C7.55612 32.9982 7.96226 33.4044 7.96226 33.9001C7.96226 34.3959 7.55612 34.802 7.0604 34.802Z" fill="#413D3D"/>
<path d="M16.5666 17.2038L18.1075 17.381C18.2924 18.1822 18.6083 18.9527 19.0475 19.6462L18.0767 20.8636C17.8225 21.1872 17.8532 21.6417 18.1383 21.9268L19.2015 22.99C19.4866 23.2751 19.9412 23.306 20.2648 23.0517L21.4821 22.0809C22.1755 22.5201 22.946 22.836 23.7473 23.0208L23.9245 24.5618C24.0452 25.6285 25.4453 25.1678 26.2128 25.2706C26.6212 25.2706 26.9602 24.9701 27.0064 24.5618L27.1836 23.0208C27.985 22.836 28.7554 22.52 29.4488 22.0808L30.6662 23.0517C30.9897 23.3059 31.4443 23.2751 31.7294 22.99L32.7926 21.9268C33.0777 21.6417 33.1085 21.1872 32.8543 20.8635L31.8835 19.6461C32.3227 18.9527 32.6386 18.1823 32.8235 17.381L34.3644 17.2038C34.7728 17.1576 35.0732 16.8186 35.0732 16.4101V14.9155C35.0732 14.5071 34.7728 14.1681 34.3644 14.1218L32.8235 13.9446C32.6386 13.1434 32.3227 12.3728 31.8835 11.6795L32.8543 10.4621C33.1085 10.1385 33.0778 9.68393 32.7926 9.39887L31.7294 8.33564C31.4443 8.05058 30.9897 8.01972 30.6662 8.274L29.4488 9.24474C28.7554 8.80555 27.985 8.4897 27.1836 8.30486L27.0064 6.76385C26.9602 6.35544 26.6212 6.05505 26.2128 6.05505H24.7181C24.3098 6.05505 23.9707 6.35558 23.9245 6.76385L23.7473 8.30486C22.946 8.4897 22.1755 8.80555 21.4821 9.24474L20.2648 8.274C19.9412 8.01979 19.4866 8.05065 19.2015 8.33571L18.1383 9.39894C17.8532 9.684 17.8225 10.1385 18.0767 10.4622L19.0475 11.6795C18.6083 12.3729 18.2924 13.1434 18.1075 13.9447L16.5666 14.122C16.1582 14.1681 15.8578 14.5073 15.8578 14.9156V16.4103C15.8578 16.8186 16.1582 17.1576 16.5666 17.2038ZM22.9861 13.1912C24.3551 11.8222 26.5694 11.8222 27.9384 13.1912C29.2982 14.551 29.2982 16.7745 27.9384 18.1344C26.5694 19.5034 24.3551 19.5034 22.9861 18.1344C21.6171 16.7746 21.6171 14.551 22.9861 13.1912Z" fill="#413D3D"/>
</svg>
