<svg width="28" height="29" viewBox="0 0 28 29" fill="none" xmlns="http://www.w3.org/2000/svg">
<path d="M24.0248 15.2462C24.0538 15.3051 24.0941 15.3578 24.1434 15.4011C24.1927 15.4445 24.2501 15.4777 24.3123 15.4989C24.3745 15.5201 24.4402 15.5288 24.5057 15.5245C24.5713 15.5203 24.6354 15.5032 24.6943 15.4742L26.9513 14.3642C27.0102 14.3352 27.0629 14.2949 27.1062 14.2456C27.1496 14.1962 27.1828 14.1389 27.204 14.0767C27.2252 14.0145 27.2339 13.9488 27.2296 13.8832C27.2254 13.8177 27.2083 13.7536 27.1793 13.6947L23.9768 7.18869C23.9479 7.12973 23.9077 7.07703 23.8584 7.03361C23.8092 6.99019 23.7518 6.9569 23.6897 6.93564C23.6276 6.91437 23.5619 6.90555 23.4964 6.90968C23.4308 6.91381 23.3667 6.9308 23.3078 6.95969L21.0518 8.07019C20.9928 8.09917 20.9402 8.13948 20.8968 8.18881C20.8535 8.23814 20.8203 8.29554 20.7991 8.35771C20.7779 8.41988 20.7692 8.48562 20.7734 8.55116C20.7777 8.6167 20.7948 8.68076 20.8238 8.73969L24.0248 15.2462ZM25.3863 12.8892L25.8158 13.7622L24.9863 14.1702L24.5568 13.2972L25.3863 12.8892ZM9.42328 13.4597C10.1733 13.8017 11.9028 13.4297 13.0348 11.4277L17.3348 14.1277C17.883 13.86 18.3283 13.4198 18.6023 12.8747L19.2988 13.1532C19.024 13.7352 18.5908 14.228 18.0488 14.5752L21.3668 16.6517C21.7893 15.9716 22.3766 15.4091 23.0743 15.0162L20.4383 9.65469C19.7273 9.87469 18.3573 9.90769 15.8293 8.88119C12.0793 7.35769 9.80828 11.0897 9.17928 12.8417C9.13571 12.9566 9.13657 13.0836 9.1817 13.1979C9.22682 13.3122 9.31297 13.4056 9.42328 13.4597Z" fill="#E97730"/>
<path d="M11.0999 21.8756C11.3071 22.0173 11.562 22.0713 11.8089 22.0256C12.0557 21.98 12.2745 21.8385 12.4174 21.6321L12.6859 21.2416C12.7586 21.1392 12.8103 21.0233 12.8379 20.9007C12.8655 20.7782 12.8684 20.6513 12.8465 20.5276C12.8246 20.4039 12.7784 20.2858 12.7104 20.1801C12.6424 20.0744 12.5541 19.9833 12.4506 19.9121C12.3471 19.8409 12.2304 19.791 12.1075 19.7653C11.9845 19.7396 11.8576 19.7386 11.7343 19.7623C11.6109 19.7861 11.4935 19.8342 11.3889 19.9038C11.2842 19.9733 11.1945 20.063 11.1249 20.1676L11.3934 19.7776C11.4639 19.6751 11.5135 19.5598 11.5395 19.4381C11.5654 19.3165 11.5671 19.1909 11.5446 19.0686C11.522 18.9463 11.4755 18.8296 11.4078 18.7252C11.3402 18.6209 11.2526 18.5308 11.1501 18.4603C11.0477 18.3898 10.9323 18.3402 10.8107 18.3142C10.689 18.2883 10.5634 18.2866 10.4411 18.3091C10.3188 18.3317 10.2021 18.3782 10.0978 18.4459C9.9934 18.5135 9.90339 18.6011 9.83287 18.7036C9.97077 18.4965 10.0217 18.2435 9.9746 17.9992C9.92753 17.7549 9.78625 17.5389 9.58128 17.3978C9.3763 17.2568 9.12409 17.2021 8.87909 17.2454C8.6341 17.2888 8.41599 17.4268 8.27187 17.6296L8.00337 18.0196C8.14573 17.8126 8.20002 17.5575 8.15431 17.3105C8.10859 17.0634 7.96662 16.8447 7.75962 16.7023C7.55262 16.56 7.29755 16.5057 7.05051 16.5514C6.80348 16.5971 6.58473 16.7391 6.44237 16.9461L5.90537 17.7261C5.7862 17.9329 5.74927 18.177 5.80192 18.4099C5.85457 18.6427 5.99295 18.8472 6.18952 18.9826C6.3861 19.1181 6.62645 19.1745 6.86277 19.1408C7.09909 19.1071 7.31404 18.9856 7.46487 18.8006C7.32252 19.0076 7.26822 19.2627 7.31393 19.5097C7.35965 19.7567 7.50162 19.9755 7.70862 20.1178C7.91562 20.2602 8.17069 20.3145 8.41773 20.2688C8.66476 20.2231 8.88352 20.0811 9.02587 19.8741L9.29437 19.4841C9.22375 19.5866 9.17403 19.7021 9.14803 19.8239C9.12204 19.9457 9.12029 20.0714 9.14287 20.1938C9.18849 20.4411 9.33049 20.6602 9.53762 20.8028C9.74476 20.9454 10.0001 20.9999 10.2474 20.9543C10.4947 20.9087 10.7137 20.7667 10.8564 20.5596C10.7151 20.7667 10.6614 21.0212 10.707 21.2677C10.7527 21.5142 10.8939 21.7327 11.0999 21.8756ZM1.02037 14.9016L3.12037 16.1061C3.23518 16.172 3.37146 16.1897 3.49931 16.1553C3.62716 16.1209 3.73615 16.0372 3.80237 15.9226L7.43037 9.64358C7.46329 9.58658 7.48464 9.52365 7.49318 9.45839C7.50173 9.39312 7.4973 9.32681 7.48016 9.26326C7.46302 9.19972 7.4335 9.14018 7.39329 9.08806C7.35309 9.03595 7.30299 8.99228 7.24587 8.95958L5.14587 7.75408C5.03105 7.68833 4.89484 7.67079 4.7671 7.70527C4.63937 7.73976 4.5305 7.82348 4.46437 7.93808L0.835871 14.2181C0.803026 14.2751 0.781742 14.3379 0.77324 14.4032C0.764737 14.4684 0.769182 14.5346 0.786321 14.5981C0.803459 14.6616 0.832954 14.7211 0.873116 14.7732C0.913278 14.8252 0.963318 14.8689 1.02037 14.9016Z" fill="#E97730"/>
<path d="M5.5863 16.8668L5.8243 16.5208C5.98095 16.2942 6.19033 16.109 6.43442 15.9813C6.67851 15.8535 6.94999 15.787 7.22548 15.7874C7.50098 15.7879 7.77225 15.8553 8.01592 15.9838C8.2596 16.1123 8.46838 16.2982 8.6243 16.5253C8.6638 16.5153 8.7038 16.5063 8.7438 16.4988C9.13083 16.4266 9.53093 16.4914 9.87531 16.6822C10.2197 16.873 10.4868 17.1779 10.6308 17.5443C11.0244 17.5477 11.4045 17.6882 11.7057 17.9416C12.0068 18.1951 12.2102 18.5456 12.2808 18.9328C12.2883 18.9728 12.2943 19.0133 12.2988 19.0533C12.5569 19.1148 12.7969 19.2361 12.9994 19.4074C13.2019 19.5788 13.3613 19.7954 13.4647 20.0397C13.5681 20.284 13.6125 20.5492 13.5945 20.8139C13.5764 21.0786 13.4964 21.3353 13.3608 21.5633L14.3998 22.1868C14.6149 22.3159 14.8722 22.3547 15.1157 22.2947C15.3593 22.2348 15.5692 22.081 15.6998 21.8668C15.7886 21.7186 15.8369 21.5496 15.8398 21.3768C15.8384 21.2156 15.7964 21.0574 15.7178 20.9167C15.6392 20.7761 15.5264 20.6574 15.3898 20.5718L16.1898 21.0518C16.2962 21.1181 16.4148 21.1626 16.5386 21.1827C16.6623 21.2027 16.7889 21.198 16.9108 21.1687C17.0327 21.1394 17.1476 21.0861 17.2487 21.012C17.3499 20.9379 17.4353 20.8444 17.4999 20.7369C17.5646 20.6295 17.6072 20.5103 17.6254 20.3862C17.6435 20.2621 17.6368 20.1357 17.6056 20.0142C17.5744 19.8927 17.5194 19.7787 17.4437 19.6787C17.368 19.5787 17.2732 19.4948 17.1648 19.4318L17.9798 19.9168C18.1946 20.0468 18.4523 20.0861 18.6961 20.0261C18.9399 19.966 19.1498 19.8116 19.2798 19.5968C19.4098 19.382 19.4491 19.1243 19.389 18.8805C19.329 18.6367 19.1746 18.4268 18.9598 18.2968L20.1698 19.0268C20.2765 19.0915 20.3949 19.1345 20.5182 19.1535C20.6416 19.1724 20.7674 19.1668 20.8886 19.1371C21.0098 19.1074 21.1239 19.0541 21.2245 18.9803C21.3251 18.9065 21.4101 18.8135 21.4748 18.7068C21.6041 18.4905 21.6425 18.2318 21.5816 17.9873C21.5207 17.7427 21.3654 17.5322 21.1498 17.4018L13.2608 12.4568C11.9083 14.2763 10.0503 14.5723 9.1108 14.1438C8.82931 14.0108 8.60758 13.7775 8.48903 13.4896C8.37047 13.2018 8.36362 12.88 8.4698 12.5873C8.68807 11.9997 8.96708 11.4365 9.3023 10.9068C8.8308 10.7293 8.38492 10.49 7.9763 10.1953L4.5603 16.1098L5.5863 16.8668Z" fill="#E97730"/>
</svg>
