<svg width="28" height="29" viewBox="0 0 28 29" fill="none" xmlns="http://www.w3.org/2000/svg">
<path d="M25.0518 7.97773C25.0518 7.05768 24.3318 6.3119 23.4126 6.28004L23.3677 7.57674C23.5845 7.58426 23.7543 7.76035 23.7543 7.97769C23.7543 8.19896 23.5744 8.37894 23.3531 8.37894C23.3139 8.37894 23.2762 8.37327 23.2402 8.36277C22.9915 8.03523 22.7182 7.72265 22.4203 7.42767C20.7922 5.81567 18.6419 4.92791 16.3655 4.92791H12.5353C12.1186 4.92791 11.7012 4.95839 11.2893 5.0187C10.8417 4.36592 10.1986 3.87401 9.43858 3.61141C8.52025 3.29416 7.52969 3.34622 6.64941 3.75802L6.06178 4.03289L7.31123 6.70381C6.31163 7.46952 5.49054 8.44175 4.90551 9.55359H2.94824V17.5342H4.90551C5.89205 19.4086 7.52411 20.8327 9.44411 21.5784V23.4574H10.7415V21.968C11.3047 22.0896 11.8839 22.1549 12.4717 22.1593C12.1878 21.383 12.0393 20.5546 12.0393 19.7033C12.0393 17.7972 12.7816 16.0052 14.1294 14.6574C15.4772 13.3096 17.2693 12.5673 19.1753 12.5673C21.0814 12.5673 22.8734 13.3096 24.2213 14.6574C24.4283 14.8644 24.6209 15.082 24.7988 15.3087C24.9197 14.7328 24.9814 14.1436 24.9814 13.544C24.9814 12.1305 24.6399 10.7686 23.9966 9.54944C24.6151 9.29527 25.0518 8.68667 25.0518 7.97773ZM9.35803 10.5572H8.06047V9.25969H9.35803V10.5572ZM20.0045 9.90486C19.0263 8.92662 17.7339 8.38789 16.3654 8.38789H14.6342V7.09045H16.3654C18.0805 7.09045 19.6986 7.76416 20.9219 8.98745L20.0045 9.90486Z" fill="#E97730"/>
<path d="M25.6923 17.3663C25.3931 16.8218 25.0152 16.3164 24.5637 15.865C23.6638 14.9651 22.5507 14.3557 21.3382 14.0841C20.8638 13.9779 20.3741 13.9233 19.8762 13.9233C19.7102 13.9233 19.5452 13.9294 19.3812 13.9414C17.797 14.0575 16.3234 14.7302 15.1887 15.8649C14.7387 16.3149 14.3618 16.8184 14.0631 17.3607C13.5305 18.3274 13.2471 19.4181 13.2471 20.5525C13.2471 21.532 13.4585 22.479 13.859 23.3418C14.1825 24.0386 14.6292 24.6806 15.1886 25.24C15.932 25.9834 16.821 26.5285 17.7911 26.8487C17.8933 26.8824 17.9963 26.9136 18.1001 26.9423C18.2039 26.971 18.3087 26.9971 18.4141 27.0208C18.5195 27.0444 18.6257 27.0655 18.7325 27.0839C19.1065 27.1486 19.4888 27.1816 19.8761 27.1816C21.6468 27.1816 23.3115 26.4921 24.5636 25.24C25.307 24.4966 25.8521 23.6076 26.1723 22.6375C26.206 22.5353 26.2372 22.4323 26.2659 22.3285C26.2946 22.2246 26.3208 22.1199 26.3444 22.0145C26.3681 21.9091 26.3891 21.8029 26.4076 21.6961C26.4722 21.3221 26.5052 20.9398 26.5052 20.5525C26.5053 19.4203 26.2229 18.3316 25.6923 17.3663ZM19.7677 19.8405H19.9847C20.9329 19.8405 21.7042 20.6118 21.7042 21.5599C21.7042 22.2958 21.2395 22.9249 20.5882 23.1699V24.1632H19.1642V23.1699C18.513 22.9249 18.0482 22.2958 18.0482 21.5599H19.4723C19.4723 21.7229 19.6048 21.8554 19.7677 21.8554H19.9847C20.1476 21.8554 20.2801 21.7229 20.2801 21.5599C20.2801 21.3971 20.1476 21.2645 19.9847 21.2645H19.7677C18.8196 21.2645 18.0482 20.4931 18.0482 19.545C18.0482 18.8092 18.513 18.1801 19.1642 17.9352V16.9418H20.5882V17.9352C21.2395 18.1802 21.7042 18.8092 21.7042 19.545H20.2801C20.2801 19.3821 20.1476 19.2495 19.9847 19.2495H19.7677C19.6048 19.2495 19.4723 19.3821 19.4723 19.545C19.4723 19.7079 19.6048 19.8405 19.7677 19.8405Z" fill="#E97730"/>
</svg>
