<svg width="42" height="42" viewBox="0 0 42 42" fill="none" xmlns="http://www.w3.org/2000/svg">
<path fill-rule="evenodd" clip-rule="evenodd" d="M10.0354 27.2151C9.63287 27.1574 9.205 27.125 8.75 27.125C5.39875 27.125 3.52712 28.8934 2.80962 29.7745C2.69325 29.9259 2.63113 30.1114 2.63113 30.303C2.63113 30.3083 2.63112 30.3135 2.63025 30.3179C2.625 30.6416 2.625 31.0704 2.625 31.5C2.625 31.983 3.017 32.375 3.5 32.375H9.7755C9.67662 32.0968 9.625 31.801 9.625 31.5C9.625 30.5042 9.625 29.3178 9.6285 28.6169C9.6285 28.1181 9.77112 27.6325 10.0354 27.2151ZM29.75 32.375H12.25C12.0181 32.375 11.795 32.2831 11.6314 32.1186C11.4669 31.955 11.375 31.7319 11.375 31.5C11.375 30.5069 11.375 29.3256 11.3785 28.6221C11.3785 28.6204 11.3785 28.6186 11.3785 28.6169C11.3785 28.4156 11.4485 28.2214 11.5754 28.0656C12.6613 26.8257 15.9425 23.625 21 23.625C26.7243 23.625 29.5986 26.8196 30.478 28.0245C30.5751 28.1724 30.625 28.3395 30.625 28.5101V31.5C30.625 31.7319 30.5331 31.955 30.3686 32.1186C30.205 32.2831 29.9819 32.375 29.75 32.375ZM32.2245 32.375H38.5C38.983 32.375 39.375 31.983 39.375 31.5V30.3021C39.375 30.1087 39.3111 29.9215 39.1939 29.7684C38.4729 28.8934 36.6004 27.125 33.25 27.125C32.8186 27.125 32.4118 27.1539 32.0285 27.2064C32.2551 27.6028 32.375 28.0525 32.375 28.5119V31.5C32.375 31.801 32.3234 32.0968 32.2245 32.375ZM8.75 16.625C6.335 16.625 4.375 18.585 4.375 21C4.375 23.415 6.335 25.375 8.75 25.375C11.165 25.375 13.125 23.415 13.125 21C13.125 18.585 11.165 16.625 8.75 16.625ZM33.25 16.625C30.835 16.625 28.875 18.585 28.875 21C28.875 23.415 30.835 25.375 33.25 25.375C35.665 25.375 37.625 23.415 37.625 21C37.625 18.585 35.665 16.625 33.25 16.625ZM21 9.625C17.6199 9.625 14.875 12.3699 14.875 15.75C14.875 19.1301 17.6199 21.875 21 21.875C24.3801 21.875 27.125 19.1301 27.125 15.75C27.125 12.3699 24.3801 9.625 21 9.625Z" fill="#413D3D"/>
</svg>
