<svg width="28" height="29" viewBox="0 0 28 29" fill="none" xmlns="http://www.w3.org/2000/svg">
<path d="M23.0078 8.09014C23.008 8.00974 22.9918 7.93013 22.9604 7.85611C22.929 7.78209 22.8829 7.7152 22.825 7.65946L19.8589 4.77873C19.7859 4.70665 19.6957 4.65429 19.5969 4.62655C19.4981 4.59882 19.3939 4.59663 19.294 4.62018C19.1941 4.64373 19.1018 4.69225 19.0258 4.7612C18.9498 4.83015 18.8926 4.91727 18.8594 5.01439C18.8553 5.03064 18.315 6.59899 16.7791 6.49742C16.308 6.46462 15.8542 6.30693 15.4643 6.04057C15.0744 5.77421 14.7625 5.40878 14.5607 4.98188C14.5156 4.87129 14.4385 4.77665 14.3394 4.71006C14.2402 4.64347 14.1235 4.60797 14.004 4.60808H14C13.8807 4.60848 13.7641 4.64367 13.6645 4.70934C13.5649 4.77502 13.4866 4.86832 13.4392 4.97782C13.2385 5.40589 12.927 5.77251 12.5369 6.03969C12.1469 6.30688 11.6925 6.46491 11.2208 6.49742C9.70934 6.59899 9.16082 5.07533 9.1405 5.01439C9.10735 4.91727 9.05009 4.83015 8.97408 4.7612C8.89806 4.69225 8.80579 4.64373 8.70591 4.62018C8.60602 4.59663 8.50179 4.59882 8.40299 4.62655C8.30418 4.65429 8.21403 4.70665 8.14099 4.77873L5.17493 7.65946C5.11698 7.7152 5.07091 7.78209 5.03949 7.85611C5.00806 7.93013 4.99194 8.00974 4.99209 8.09014C4.99026 8.17103 5.0052 8.25141 5.03597 8.32624C5.06674 8.40106 5.11267 8.4687 5.17087 8.5249C6.45887 9.81696 6.29634 11.6169 5.50404 14.6967C4.7158 17.7644 5.52029 21.9696 13.8171 24.5985C13.9361 24.6363 14.0638 24.6363 14.1828 24.5985C22.4796 21.9696 23.2841 17.7644 22.4959 14.6967C21.7036 11.6169 21.541 9.81696 22.829 8.5249C22.8872 8.4687 22.9332 8.40106 22.9639 8.32624C22.9947 8.25141 23.0096 8.17103 23.0078 8.09014ZM14.6094 15.1599V17.6506C14.6094 17.8122 14.5452 17.9672 14.4309 18.0815C14.3166 18.1958 14.1616 18.2601 14 18.2601C13.8383 18.2601 13.6833 18.1958 13.569 18.0815C13.4547 17.9672 13.3905 17.8122 13.3905 17.6506V15.1599C13.0088 15.0171 12.6895 14.7448 12.4881 14.3905C12.2867 14.0362 12.2162 13.6225 12.2888 13.2215C12.3613 12.8205 12.5724 12.4578 12.8851 12.1965C13.1979 11.9353 13.5925 11.7922 14 11.7922C14.4075 11.7922 14.802 11.9353 15.1148 12.1965C15.4275 12.4578 15.6386 12.8205 15.7112 13.2215C15.7837 13.6225 15.7132 14.0362 15.5118 14.3905C15.3104 14.7448 14.9911 15.0171 14.6094 15.1599ZM14.52 13.5347C14.5192 13.6374 14.488 13.7375 14.4304 13.8225C14.3728 13.9075 14.2913 13.9735 14.1962 14.0123C14.1011 14.051 13.9966 14.0607 13.896 14.0402C13.7954 14.0197 13.7031 13.9698 13.6308 13.8969C13.5585 13.824 13.5093 13.7314 13.4896 13.6306C13.4699 13.5298 13.4804 13.4255 13.5199 13.3307C13.5593 13.2359 13.626 13.1549 13.7114 13.0979C13.7969 13.0409 13.8973 13.0105 14 13.0105C14.0686 13.0106 14.1365 13.0243 14.1998 13.0507C14.2631 13.0772 14.3206 13.1158 14.3689 13.1645C14.4172 13.2132 14.4555 13.271 14.4814 13.3345C14.5073 13.3981 14.5205 13.4661 14.52 13.5347Z" fill="#E97730"/>
</svg>
