<svg width="36" height="36" viewBox="0 0 36 36" fill="none" xmlns="http://www.w3.org/2000/svg">
<path d="M0 15.7977L1.38772 14.41C2.88219 12.9155 4.72768 11.7557 6.72415 11.0566C8.22824 10.5305 9.80734 10.2632 11.4163 10.2632C11.9413 10.2632 12.4693 10.293 12.9867 10.3507L14.6995 10.544L19.5618 5.68168C21.3765 3.86697 23.498 2.44943 25.8666 1.47043C28.2276 0.495272 30.7203 0 33.2765 0C33.741 0 34.2113 0.0173105 34.6748 0.050008L35.8644 0.135599L35.95 1.32521C36.3549 6.94534 34.3017 12.4539 30.3174 16.4382L25.455 21.3005L25.6474 23.0133C25.884 25.1146 25.6406 27.2803 24.9415 29.2758C24.2433 31.2723 23.0835 33.1178 21.5881 34.6123L20.2013 36L0 15.7977ZM16.4651 30.2914L20.2023 34.0285L20.6033 33.6275C23.3124 30.9184 24.653 27.1774 24.2808 23.3643L24.202 22.5536L16.4651 30.2914ZM23.6365 4.1949C22.519 4.90463 21.4794 5.7365 20.5475 6.66838L6.6953 20.5206L15.4794 29.3047L29.3316 15.4525C30.2635 14.5206 31.0963 13.481 31.8051 12.3635L31.9705 12.1029L23.8971 4.02949L23.6365 4.1949ZM11.3778 11.6567C7.98205 11.6567 4.78442 12.9848 2.37346 15.3957L1.97243 15.7968L5.70957 19.5339L13.4473 11.7961L12.6366 11.7173C12.2193 11.6778 11.7952 11.6567 11.3778 11.6567ZM33.2784 1.39445C30.6636 1.39445 28.0276 1.98012 25.657 3.08799L25.1598 3.32072L32.6802 10.8412L32.913 10.344C34.1584 7.68008 34.7354 4.71999 34.5825 1.78298L34.5642 1.43677L34.218 1.4185C33.9054 1.40215 33.59 1.39445 33.2784 1.39445Z" fill="#4F4F4F"/>
<path d="M3.65999 24.691L0.314331 28.0366L1.29967 29.022L4.64533 25.6763L3.65999 24.691Z" fill="#4F4F4F"/>
<path d="M10.3156 31.3494L6.96994 34.6951L7.95596 35.6811L11.3016 32.3354L10.3156 31.3494Z" fill="#4F4F4F"/>
<path d="M6.98711 28.0197L1.71973 33.2871L2.70575 34.2731L7.97313 29.0057L6.98711 28.0197Z" fill="#4F4F4F"/>
<path d="M21.8381 16.8959C21.0476 16.8959 20.3042 16.5891 19.7464 16.0314C18.5934 14.8783 18.5934 13.002 19.7464 11.8499C20.3042 11.2921 21.0466 10.9854 21.8372 10.9854C22.6277 10.9854 23.3711 11.2921 23.9279 11.8499C25.0809 13.003 25.0809 14.8783 23.9279 16.0314C23.3711 16.5891 22.6286 16.8959 21.8381 16.8959ZM21.8381 12.3788C21.4198 12.3788 21.0274 12.5414 20.7331 12.8356C20.1244 13.4444 20.1244 14.4359 20.7331 15.0456C21.0284 15.3409 21.4207 15.5024 21.8381 15.5024C22.2555 15.5024 22.6479 15.3399 22.9431 15.0456C23.5519 14.4359 23.5519 13.4444 22.9431 12.8356C22.6479 12.5414 22.2555 12.3788 21.8381 12.3788Z" fill="#4F4F4F"/>
</svg>
