<svg width="29" height="29" viewBox="0 0 29 29" fill="none" xmlns="http://www.w3.org/2000/svg">
<path d="M13.4387 9.07675C13.596 9.28809 13.8964 9.33389 14.1073 9.1789L15.9487 7.85095C16.1632 7.69596 16.2097 7.40008 16.0524 7.19226L11.4865 1.05269C11.3292 0.841343 11.0288 0.795551 10.8179 0.950538L8.97649 2.27849C8.76196 2.43347 8.71548 2.72936 8.8728 2.93718L13.4387 9.07675Z" fill="white"/>
<path d="M28.2985 25.0085L23.7325 18.8689C23.5752 18.6576 23.2749 18.6118 23.0639 18.7668L21.2225 20.0947C21.008 20.2497 20.9615 20.5456 21.1189 20.7534L25.6848 26.893C25.8421 27.1044 26.1424 27.1501 26.3534 26.9952L28.1948 25.6672C28.4093 25.5122 28.4558 25.2163 28.2985 25.0085Z" fill="white"/>
<path d="M11.7082 12.8526C10.9537 11.5035 12.1873 10.7568 12.1873 10.7568L7.25668 3.99374C7.25668 3.99374 2.5263 7.45628 9.64511 18.4286C12.4054 22.6802 15.23 25.1036 17.6614 26.4844C17.2788 27.048 16.7997 27.7207 16.5279 27.9743C16.367 28.1258 16.1382 28.1082 16.0166 28.0835C15.6448 28.0131 15.2908 27.7137 15.112 27.3262C14.8475 26.745 14.3076 26.3787 13.7605 26.4033C13.192 26.428 12.7272 26.826 12.4984 27.4671C12.2624 27.9638 12.0729 28.073 12.0264 28.073C11.9799 28.073 11.8011 27.9603 11.6045 27.4812L11.5866 27.446C11.2362 26.8084 10.7821 26.4773 10.2994 26.5161C9.97048 26.5442 9.51639 26.7556 9.2089 27.6186C9.09448 27.8335 8.8728 28.1646 8.59749 28.1469C8.35793 28.1329 8.07189 27.8616 7.95747 27.5411L7.93602 27.4918C7.51769 26.7168 7.04215 26.3399 6.52012 26.3752C5.9838 26.4104 5.48323 26.9176 5.18289 27.7243C5.13641 27.8511 5.02557 28.0659 4.81819 28.0659C4.81461 28.0659 4.81461 28.0659 4.81104 28.0659C4.60366 28.0624 4.31404 27.8511 4.1746 27.4037L4.15315 27.3544C3.79917 26.6429 3.35939 26.4773 3.05189 26.4632C2.5835 26.4456 2.10796 26.7662 1.77544 27.3121C1.32135 27.9814 0.40245 28.1469 0.391724 28.1505L0.452507 28.4992L0.513291 28.8479C0.563347 28.8409 1.74684 28.633 2.3797 27.6926C2.57635 27.372 2.83379 27.1571 3.01971 27.1712C3.17346 27.1783 3.34508 27.3474 3.49525 27.6468C3.71336 28.309 4.23181 28.7634 4.78958 28.7775C5.25082 28.781 5.66201 28.4886 5.85151 27.9743C6.03743 27.4742 6.33777 27.1008 6.56303 27.0867C6.77041 27.0726 7.03142 27.3438 7.28528 27.8088C7.46763 28.2914 7.93245 28.8162 8.54386 28.855C8.56531 28.855 8.58676 28.8585 8.61179 28.8585C8.92286 28.8585 9.43773 28.7211 9.84891 27.925L9.86679 27.8792C10.0313 27.4108 10.2243 27.2346 10.3495 27.2241C10.4818 27.21 10.7213 27.3791 10.9394 27.7736C11.2148 28.4323 11.5723 28.7739 11.9978 28.7845C12.4376 28.7986 12.8166 28.4534 13.1527 27.7383C13.2921 27.3509 13.5209 27.1219 13.782 27.1114C14.0394 27.1008 14.304 27.298 14.4506 27.6186C14.7259 28.2174 15.2658 28.6647 15.8665 28.781C16.3027 28.8655 16.7174 28.7598 17.0071 28.4921C17.3467 28.1751 17.8938 27.3967 18.2764 26.8331C21.7911 28.626 24.3297 28.2385 24.3297 28.2385C24.3297 28.2385 21.2333 23.8144 19.5671 21.553C17.2538 22.2716 12.3232 14.4483 11.7082 12.8526Z" fill="white"/>
</svg>
