<svg width="25" height="24" viewBox="0 0 25 24" fill="none" xmlns="http://www.w3.org/2000/svg">
<path d="M24.388 10.9661C24.3888 10.5512 24.2301 10.2447 23.8958 10.017C23.7874 9.94312 23.6783 9.87034 23.5661 9.80244C22.776 9.32301 21.9871 8.8417 21.1922 8.37015C21.0511 8.28649 20.9986 8.19684 20.9994 8.03065C21.0058 6.1133 20.9953 4.19559 21.008 2.27824C21.0125 1.60111 20.5458 1.28599 20.0278 1.28712C14.933 1.298 9.83782 1.29875 4.74266 1.28562C4.22271 1.28412 3.75379 1.61837 3.76167 2.27111C3.78492 4.20084 3.76842 6.13094 3.77292 8.06104C3.7733 8.20396 3.73128 8.28875 3.60561 8.35927C3.31712 8.52096 3.03614 8.69652 2.75366 8.86909C2.13581 9.24685 1.5157 9.62162 0.903094 10.0076C0.555714 10.2267 0.394778 10.5437 0.395153 10.9669C0.401531 14.9021 0.405657 18.837 0.391777 22.7718C0.389526 23.3942 0.883962 23.988 1.60798 23.9861C5.20258 23.9771 8.79755 23.982 12.3922 23.982C15.9868 23.982 19.5817 23.9771 23.1763 23.9861C23.8936 23.988 24.3937 23.4013 24.3914 22.7707C24.3779 18.8358 24.382 14.901 24.388 10.9661ZM3.75491 12.3977C3.6555 12.3429 3.57972 12.305 3.50807 12.2611C3.16182 12.0503 2.81106 11.8455 2.47156 11.6241C1.9745 11.3 1.97037 10.7849 2.4648 10.4582C2.84445 10.2072 3.23722 9.97538 3.62511 9.73679C3.65963 9.71541 3.70164 9.7064 3.75491 9.68614C3.75491 10.591 3.75491 11.4774 3.75491 12.3977ZM19.6384 13.2271C17.2686 14.5911 14.9015 15.9596 12.5358 17.3308C12.4293 17.3927 12.3524 17.3908 12.2473 17.33C9.85958 15.9465 7.47068 14.5656 5.07954 13.1888C4.95874 13.1194 4.92123 13.0388 4.92123 12.9056C4.92423 9.49595 4.9246 6.08629 4.9201 2.67664C4.91972 2.50032 4.97712 2.45868 5.14518 2.45906C9.97062 2.46319 14.7961 2.46244 19.6215 2.46281C19.6826 2.46281 19.7438 2.46844 19.8301 2.47294C19.8301 2.57235 19.8301 2.64625 19.8301 2.72053C19.8301 6.11143 19.8286 9.50233 19.8346 12.8932C19.8353 13.0613 19.779 13.1464 19.6384 13.2271ZM22.3202 11.6177C21.9035 11.8886 21.4743 12.1407 21.0174 12.4213C21.0174 11.4774 21.0174 10.5831 21.0174 9.66439C21.0909 9.70265 21.1464 9.72741 21.1975 9.75892C21.5745 9.99188 21.9564 10.2177 22.3251 10.4627C22.8094 10.7842 22.8076 11.3011 22.3202 11.6177Z" fill="white"/>
<path d="M16.9327 4.53296H7.40448C7.09386 4.53296 6.84177 4.78505 6.84177 5.09567C6.84177 5.40629 7.09386 5.65838 7.40448 5.65838H16.9327C17.2433 5.65838 17.4954 5.40629 17.4954 5.09567C17.4954 4.78505 17.2433 4.53296 16.9327 4.53296Z" fill="white"/>
<path d="M16.9327 6.65701H7.40448C7.09386 6.65701 6.84177 6.90911 6.84177 7.21972C6.84177 7.53034 7.09386 7.78243 7.40448 7.78243H16.9327C17.2433 7.78243 17.4954 7.53034 17.4954 7.21972C17.4954 6.90911 17.2433 6.65701 16.9327 6.65701Z" fill="white"/>
<path d="M16.9327 9.12393H7.40448C7.09386 9.12393 6.84177 9.37603 6.84177 9.68664C6.84177 9.99726 7.09386 10.2494 7.40448 10.2494H16.9327C17.2433 10.2494 17.4954 9.99726 17.4954 9.68664C17.4954 9.37603 17.2433 9.12393 16.9327 9.12393Z" fill="white"/>
<path d="M16.9327 11.5909H12.6733C12.3627 11.5909 12.1106 11.8429 12.1106 12.1536C12.1106 12.4642 12.3627 12.7163 12.6733 12.7163H16.9327C17.2433 12.7163 17.4954 12.4642 17.4954 12.1536C17.4954 11.8429 17.2433 11.5909 16.9327 11.5909Z" fill="white"/>
</svg>
