<svg width="186" height="38" viewBox="0 0 186 38" fill="none" xmlns="http://www.w3.org/2000/svg">
<g clip-path="url(#clip0_3_4202)">
<path d="M38.7725 0.0800781H0.0328369V37.5832H38.7725V0.0800781Z" fill="white"/>
<path d="M25.363 0.0158691C29.7005 0.0158691 34.0214 0.0158691 38.359 0.0158691C38.7232 0.0158691 38.8225 0.112031 38.8225 0.464625C38.806 6.44269 38.806 12.4047 38.8225 18.3828C38.8225 18.8155 38.5907 18.8796 38.2596 18.9598C35.528 19.6169 32.7963 20.29 30.0647 20.9471C29.6674 21.0433 29.3859 21.1394 29.3528 21.6363C29.1376 25.9315 25.8431 28.4798 22.0188 29.185C17.5819 30.0024 13.4927 27.9028 11.3902 23.7038C9.80089 20.5304 9.37045 17.1968 10.7777 13.8472C12.069 10.77 14.6351 9.15125 17.9296 8.5262C21.5056 7.85307 24.4524 8.78263 26.6212 11.7156C26.8695 12.0521 27.1013 12.0201 27.449 11.9399C30.2468 11.2508 33.0281 10.5456 35.8425 9.90452C36.422 9.77631 36.3889 9.56796 36.1902 9.15125C33.9883 4.55151 30.4289 1.49035 25.363 0.0158691Z" fill="#E8610E"/>
<path d="M74.4828 15.4662C74.4828 18.9921 74.4662 22.5181 74.4993 26.0601C74.4993 26.7813 74.2344 27.1018 73.5391 27.2461C71.0227 27.807 68.4897 28.1436 65.9071 27.9833C62.5463 27.791 60.1292 25.7876 59.5001 22.5822C59.0366 20.2102 59.0366 17.8061 59.467 15.4342C60.1127 11.8762 62.5629 9.87279 66.3209 9.72854C67.397 9.68046 68.4731 9.71252 69.5492 9.85676C70.0625 9.92087 70.228 9.82471 70.2115 9.29581C70.1783 7.7412 70.1949 6.18658 70.1949 4.63196C70.1949 3.83061 70.3439 3.70239 71.1551 3.70239C71.9498 3.70239 72.761 3.70239 73.5557 3.70239C74.3338 3.70239 74.4828 3.84664 74.4828 4.5999C74.4828 8.22201 74.4828 11.8441 74.4828 15.4662ZM70.1783 18.928C70.1783 17.2452 70.1618 15.5624 70.1949 13.8635C70.1949 13.4789 70.0956 13.3346 69.6817 13.2865C68.7711 13.1904 67.8606 13.1423 66.9335 13.1583C65.1124 13.1904 64.1191 13.8956 63.788 15.6105C63.3741 17.7741 63.4072 19.9858 63.788 22.1655C64.0528 23.672 64.9965 24.4093 66.5693 24.5856C67.6288 24.6978 68.6718 24.5535 69.7314 24.4734C70.0956 24.4413 70.2115 24.265 70.2115 23.9124C70.1783 22.2617 70.1783 20.5948 70.1783 18.928Z" fill="#2E302F"/>
<path d="M86.5515 20.4025C84.8959 20.4025 83.2569 20.4185 81.6014 20.3865C81.1544 20.3865 81.0716 20.5147 81.0882 20.9154C81.2206 23.2233 82.5119 24.4093 85.078 24.4894C86.9985 24.5535 88.8692 24.2169 90.7069 23.7361C91.6174 23.4957 91.7002 23.5598 91.7167 24.4573C91.7167 24.7618 91.6671 25.0824 91.7333 25.3869C91.8989 26.2844 91.4519 26.7492 90.6406 27.0377C87.909 28.0634 85.1111 28.4961 82.2305 27.7108C79.234 26.8934 77.3963 24.9862 76.9493 21.9732C76.6348 19.8896 76.6182 17.758 76.999 15.6745C77.6612 11.8601 80.724 9.61634 84.8794 9.79263C89.3824 9.98496 92.2134 12.7576 92.3624 17.133C92.3955 17.8863 92.379 18.6395 92.379 19.3928C92.379 20.2903 92.2631 20.4025 91.3525 20.4025C89.7632 20.4025 88.1573 20.4025 86.5515 20.4025ZM84.5814 17.4215C85.5912 17.4215 86.6011 17.4215 87.611 17.4215C87.8097 17.4215 88.0083 17.4696 88.0746 17.1651C88.3063 15.9951 87.3627 14.2481 86.1872 13.7192C83.6874 12.5813 80.9392 14.4084 81.1047 17.0689C81.1378 17.4535 81.3531 17.4215 81.6179 17.4215C82.5947 17.4215 83.588 17.4215 84.5814 17.4215Z" fill="#2E302F"/>
<path d="M154.197 20.4026C152.541 20.4026 150.902 20.4187 149.247 20.3866C148.734 20.3706 148.651 20.5469 148.684 20.9956C148.899 23.3035 150.141 24.4254 152.674 24.4895C154.611 24.5536 156.498 24.201 158.369 23.7202C159.197 23.5119 159.28 23.576 159.296 24.4094C159.296 24.7139 159.246 25.0344 159.313 25.3389C159.478 26.2845 158.998 26.7653 158.137 27.0699C155.422 28.0796 152.641 28.4963 149.793 27.7109C146.797 26.8936 144.976 24.9703 144.529 21.9573C144.214 19.8737 144.198 17.7422 144.578 15.6586C145.257 11.8282 148.336 9.60044 152.492 9.79276C156.995 10.0011 159.809 12.7578 159.975 17.1331C160.008 17.9345 159.975 18.7358 159.991 19.5372C160.008 20.1462 159.743 20.4187 159.081 20.4026C157.458 20.3866 155.819 20.4026 154.197 20.4026ZM152.177 17.4216C153.171 17.4216 154.147 17.4216 155.141 17.4216C155.339 17.4216 155.588 17.5178 155.654 17.1492C155.952 15.4663 154.528 13.6392 152.773 13.4469C150.356 13.1905 148.668 14.665 148.701 17.0209C148.701 17.3575 148.85 17.4216 149.148 17.4216C150.157 17.4216 151.167 17.4216 152.177 17.4216Z" fill="#2E302F"/>
<path d="M41.8354 18.912C41.8023 17.5978 41.7857 16.2996 42.15 15.0174C43.1102 11.6037 46.0239 9.64837 49.8648 9.79261C54.4506 9.96891 57.2981 12.7416 57.3975 17.1971C57.4306 18.928 57.5961 20.6589 57.1988 22.3738C56.1889 26.7812 52.6626 28.4801 48.6066 28.0634C44.4677 27.6307 41.9844 24.9542 41.8188 20.9154C41.8188 20.2422 41.8354 19.5691 41.8354 18.912ZM53.1262 18.9921C53.1096 18.1106 53.1593 17.2131 52.9937 16.3477C52.6626 14.5526 51.5203 13.4949 49.7986 13.4307C47.9775 13.3506 46.7027 14.2481 46.3219 16.0752C45.9246 17.9824 45.9411 19.9217 46.3219 21.8289C46.6696 23.5919 47.9443 24.5375 49.633 24.5214C51.3216 24.5054 52.5136 23.5278 52.9441 21.7808C53.1759 20.8512 53.1262 19.9217 53.1262 18.9921Z" fill="#2E302F"/>
<path d="M109.978 18.9437C109.944 17.6295 109.928 16.3313 110.276 15.0491C111.236 11.6033 114.216 9.58393 118.106 9.79229C122.676 10.0327 125.457 12.7733 125.556 17.2128C125.589 18.9116 125.755 20.6426 125.374 22.3254C124.381 26.7328 120.888 28.4477 116.815 28.047C112.643 27.6303 110.143 24.9378 109.994 20.8669C109.961 20.2419 109.978 19.5848 109.978 18.9437ZM121.268 18.9758C121.252 18.0943 121.301 17.1968 121.136 16.3313C120.805 14.5363 119.662 13.4945 117.924 13.4304C116.136 13.3503 114.861 14.2157 114.481 16.0268C114.067 18.0141 114.05 20.0496 114.514 22.0209C114.911 23.6556 116.103 24.5051 117.709 24.5051C119.348 24.5211 120.507 23.6396 121.003 22.0049C121.318 21.0112 121.268 20.0015 121.268 18.9758Z" fill="#2E302F"/>
<path d="M128.95 10.0006C129.347 10.0006 129.728 10.0327 130.125 9.98461C130.904 9.88845 131.168 10.2731 131.334 10.9302C132.327 15.2094 133.337 19.4886 134.364 23.7518C134.397 23.896 134.446 24.0563 134.496 24.2006C134.579 24.441 134.711 24.6493 135.026 24.6493C135.34 24.6493 135.44 24.4089 135.539 24.1845C135.589 24.0563 135.605 23.9281 135.638 23.7999C136.648 19.5688 137.658 15.3376 138.651 11.1065C138.9 10.0487 138.966 10.0006 140.059 10.0006C140.837 10.0006 141.615 10.0006 142.393 10.0006C143.188 10.0006 143.37 10.225 143.155 10.9943C142.459 13.4304 141.764 15.8665 141.069 18.2866C140.406 20.5945 139.761 22.9024 139.082 25.1942C138.502 27.1655 137.162 28.1111 135.026 28.1111C132.923 28.1111 131.566 27.1816 131.003 25.2583C129.612 20.4823 128.271 15.7062 126.897 10.9142C126.699 10.241 126.881 10.0167 127.609 10.0006C128.039 10.0006 128.486 10.0006 128.95 10.0006Z" fill="#2E302F"/>
<path d="M178.964 9.79224C181.232 9.82429 183.037 10.0967 184.758 10.7859C185.321 11.0103 185.603 11.3308 185.57 11.9399C185.537 12.4046 185.57 12.8694 185.57 13.3342C185.553 14.1356 185.404 14.2477 184.626 14.0234C183.02 13.5586 181.381 13.238 179.693 13.222C179.212 13.222 178.732 13.2701 178.252 13.3502C177.805 13.4304 177.408 13.6067 177.309 14.1035C177.193 14.6003 177.325 15.0491 177.772 15.3376C178.55 15.8344 179.361 16.3152 180.156 16.796C181.282 17.4692 182.441 18.1102 183.533 18.8315C185.619 20.1938 186.364 22.0529 185.835 24.2967C185.371 26.268 183.666 27.6784 181.298 27.9989C178.815 28.3355 176.415 28.031 174.064 27.1975C173.401 26.9571 173.037 26.5725 173.137 25.8513C173.186 25.4827 173.137 25.098 173.153 24.7134C173.153 23.7197 173.252 23.6396 174.213 23.928C175.984 24.4409 177.772 24.7614 179.626 24.6813C179.941 24.6653 180.272 24.6332 180.57 24.5531C181.646 24.2806 181.961 23.1587 181.199 22.3574C180.868 22.0048 180.454 21.7644 180.04 21.524C178.534 20.6265 177.027 19.761 175.537 18.8315C173.451 17.5333 172.59 15.6421 173.037 13.3663C173.385 11.6353 174.544 10.6417 176.249 10.1609C177.275 9.84032 178.335 9.80826 178.964 9.79224Z" fill="#2E302F"/>
<path d="M99.5474 13.6071C99.5474 16.2035 99.5474 18.7998 99.5474 21.3962C99.5474 23.8003 100.11 24.3452 102.577 24.3452C104.349 24.3452 106.103 24.3612 107.875 24.3452C108.52 24.3292 108.802 24.5696 108.769 25.2106C108.736 25.7716 108.736 26.3165 108.769 26.8774C108.785 27.3422 108.603 27.6147 108.14 27.6628C105.16 28.0474 102.18 28.4321 99.1998 27.7269C96.8655 27.182 95.4583 25.6273 95.1437 23.3195C95.0609 22.7425 95.0113 22.1655 95.0113 21.5885C94.9947 16.1874 95.0113 10.8024 95.0113 5.40127C95.0113 4.47171 95.1768 4.31144 96.1205 4.29541C96.9482 4.29541 97.776 4.29541 98.6038 4.29541C99.3819 4.31144 99.564 4.48773 99.564 5.25703C99.5474 8.06175 99.5474 10.8344 99.5474 13.6071Z" fill="#2E302F"/>
<path d="M162.326 19.2647C162.326 16.7485 162.342 14.2483 162.309 11.732C162.309 11.1871 162.475 10.8345 163.054 10.7063C165.686 10.0813 168.352 9.68059 171.084 9.82484C171.762 9.85689 172.027 10.1133 171.994 10.7704C171.961 11.3474 171.961 11.9244 171.994 12.5013C172.027 13.1264 171.779 13.3828 171.1 13.3508C169.842 13.2867 168.584 13.3668 167.325 13.5431C166.729 13.6232 166.663 13.8636 166.663 14.3605C166.68 18.4474 166.68 22.5342 166.68 26.6211C166.68 27.7751 166.58 27.8712 165.389 27.8712C164.726 27.8712 164.064 27.8712 163.385 27.8712C162.524 27.8712 162.326 27.6949 162.326 26.8615C162.326 24.3293 162.326 21.797 162.326 19.2647Z" fill="#2E302F"/>
<path d="M0.0172994 14.4884C0.0172994 12.2767 0.0172994 10.2252 0.0172994 8.17377C0.0172994 5.6415 0.0172994 3.10924 0.0172994 0.592999C0.000744011 0.240405 -0.0158114 0 0.480851 0C5.34814 0.016027 10.1989 0.016027 15.2317 0.016027C7.41757 2.1957 2.08673 6.63517 0.0172994 14.4884Z" fill="#E8610E"/>
<path d="M0.0164702 22.4377C1.45679 28.7364 5.13209 34.8747 13.4926 37.5672C12.7972 37.5672 12.284 37.5672 11.7874 37.5672C8.07895 37.5672 4.35399 37.5672 0.645576 37.5672C0.347578 37.5672 -0.0497514 37.6794 0.0164702 37.1505C0.0330256 37.0704 0.0164702 36.9742 0.0164702 36.8781C0.0164702 32.07 0.0164702 27.2619 0.0164702 22.4377Z" fill="#E8610E"/>
<path d="M38.8222 24.73C38.8222 26.0121 38.8222 27.2943 38.8222 28.5604C38.8222 31.3812 38.8222 34.2019 38.8222 37.0227C38.8222 37.3593 38.8388 37.5997 38.3421 37.5997C34.0377 37.5836 29.7168 37.5836 25.1971 37.5836C32.1007 35.4681 37.0508 31.6697 38.8222 24.73Z" fill="#E8610E"/>
<path d="M85.5418 33.2881C86.6344 32.3905 87.545 32.4066 88.4555 33.3842C88.7535 33.0957 89.0515 32.8233 89.482 32.7271C90.6077 32.4547 91.5679 33.0156 91.6507 34.1215C91.7169 35.2434 91.6673 36.3813 91.6673 37.5192C91.6673 38.0962 91.2203 37.8077 90.972 37.8557C90.4091 37.9679 90.2104 37.7596 90.2601 37.1986C90.3097 36.3332 90.2766 35.4677 90.2766 34.6023C90.2766 34.1375 90.1276 33.7689 89.5647 33.7368C89.0019 33.7048 88.6707 34.0093 88.6542 34.5221C88.6045 35.4677 88.5714 36.4293 88.6211 37.3749C88.6542 37.984 88.2569 37.8557 87.9258 37.8557C87.5615 37.8718 87.2139 37.9519 87.247 37.3589C87.2966 36.4774 87.2635 35.5799 87.2635 34.6984C87.2635 34.2016 87.1642 33.7528 86.502 33.7368C85.8894 33.7208 85.608 34.0093 85.5914 34.7305C85.5749 35.5479 85.5418 36.3813 85.608 37.1986C85.6411 37.7596 85.4755 37.9038 84.8961 37.9038C84.3498 37.9038 84.2173 37.7596 84.2173 37.2467C84.2504 35.9806 84.2173 34.7145 84.2339 33.4483C84.2339 33.2239 84.0021 32.7752 84.5484 32.8233C84.9127 32.8233 85.5252 32.4707 85.5418 33.2881Z" fill="#2E302F"/>
<path d="M42.7792 31.0924C44.3023 30.9642 44.3023 30.9642 44.6996 32.2624C45.0307 33.3522 45.3453 34.426 45.6764 35.5159C45.726 35.6761 45.726 35.8685 45.9413 35.9967C46.3551 34.6344 46.8021 33.2881 47.1498 31.9098C47.3154 31.2367 47.5968 30.9161 48.3418 31.0604C48.5073 31.0924 48.706 31.0604 48.9543 31.0604C48.3087 32.9035 47.6796 34.6664 47.0505 36.4454C46.9842 36.6538 46.8518 36.8621 46.8352 37.0705C46.7525 37.8558 46.2227 37.9039 45.577 37.8558C45.2956 37.8398 45.13 37.7757 45.0307 37.5032C44.2857 35.3877 43.5407 33.2721 42.7792 31.0924Z" fill="#2E302F"/>
<path d="M81.2043 37.8238C80.6745 37.6315 79.8302 38.3367 79.6481 37.2308C79.1514 37.6956 78.6216 38.0161 77.9263 37.9841C77.0985 37.936 76.5026 37.4552 76.4032 36.7179C76.2873 35.9166 76.6847 35.2274 77.4793 35.003C78.0091 34.8588 78.5554 34.8107 79.0852 34.7146C79.3666 34.6665 79.6315 34.5543 79.615 34.2177C79.5984 33.8811 79.317 33.769 79.0521 33.7529C78.6051 33.7049 78.2078 33.7209 77.9263 34.1857C77.6283 34.6825 77.0654 34.4421 76.7012 34.3459C76.4032 34.2818 76.6681 33.8651 76.7674 33.6247C76.9495 33.224 77.2972 32.9516 77.7276 32.8234C78.4064 32.615 79.0686 32.615 79.764 32.8073C80.658 33.0638 80.9725 33.4164 80.9725 34.3299C80.9891 35.1473 80.9725 35.9807 80.9725 36.7981C81.0056 37.1186 80.9891 37.4872 81.2043 37.8238ZM79.5653 35.3877C79.1183 35.4838 78.6713 35.58 78.2409 35.6922C77.8435 35.8044 77.6945 36.0929 77.7939 36.4615C77.8766 36.8301 78.1912 36.9263 78.5389 36.8942C79.3666 36.8782 79.7309 36.3493 79.5653 35.3877Z" fill="#2E302F"/>
<path d="M58.8048 35.7243C58.3247 35.7243 57.8446 35.7404 57.3645 35.7243C56.9672 35.7083 56.9506 35.8686 57.05 36.1571C57.2983 36.8783 58.3744 37.2309 58.9704 36.686C59.4174 36.2693 59.8975 36.4456 60.3776 36.3975C60.6425 36.3814 60.6259 36.5577 60.5266 36.702C60.4107 36.8943 60.2948 37.0866 60.1458 37.2469C59.3512 38.0322 58.391 38.1444 57.3645 37.8559C56.3878 37.5835 55.8414 36.9424 55.6924 35.9487C55.3282 33.6889 56.9506 32.1503 59.0532 32.7754C60.1293 33.0959 60.9239 34.4101 60.7087 35.4679C60.659 35.7404 60.4935 35.7083 60.3114 35.7083C59.8147 35.7243 59.3015 35.7243 58.8048 35.7243ZM58.1592 34.7788C58.4075 34.7788 58.6558 34.7627 58.9042 34.7788C59.3512 34.8108 59.3346 34.6185 59.1856 34.314C58.8711 33.6248 57.8115 33.4806 57.2983 34.0575C57.1327 34.2338 56.9506 34.4742 57.05 34.6986C57.1327 34.8749 57.4142 34.7627 57.6128 34.7788C57.795 34.7948 57.9771 34.7788 58.1592 34.7788Z" fill="#2E302F"/>
<path d="M70.1451 33.3684C70.6418 32.8235 71.155 32.6152 71.7675 32.6472C72.8767 32.6793 73.4727 33.2402 73.4893 34.298C73.5059 35.3398 73.4728 36.3815 73.5059 37.4233C73.5224 38.0323 73.092 37.8239 72.8105 37.8239C72.5291 37.8239 72.0821 38.0323 72.1152 37.4233C72.1483 36.5578 72.1318 35.6923 72.1152 34.8269C72.1152 34.0255 71.8834 33.721 71.2709 33.705C70.6252 33.689 70.2113 34.0736 70.1782 34.8109C70.1451 35.6282 70.112 36.4616 70.1782 37.279C70.2279 37.9522 69.8306 37.8239 69.4167 37.856C68.92 37.9041 68.7545 37.7598 68.771 37.247C68.8207 35.9648 68.771 34.6666 68.7876 33.3845C68.7876 33.1761 68.5889 32.7434 69.0524 32.7915C69.4498 32.8395 70.0789 32.4228 70.1451 33.3684Z" fill="#2E302F"/>
<path d="M65.2779 37.9841C64.0197 37.9841 63.7383 37.6956 63.7383 36.5737C63.7383 35.7563 63.7383 34.9389 63.7383 34.1216C63.7383 33.9292 63.7879 33.6888 63.4568 33.7369C63.0595 33.801 63.0264 33.5766 63.0264 33.2721C63.0264 32.9676 63.0429 32.7432 63.4568 32.8073C63.7051 32.8394 63.7714 32.7112 63.7548 32.4868C63.7382 32.3586 63.7382 32.2143 63.7548 32.0861C63.7879 31.8457 63.6058 31.4611 63.8873 31.3649C64.2184 31.2527 64.6488 31.2527 64.9634 31.3649C65.2945 31.4771 65.0958 31.8617 65.1124 32.1342C65.1289 32.5188 65.0627 32.9035 65.6918 32.8073C66.0891 32.7432 65.9567 33.0798 65.9567 33.2721C65.9567 33.4644 66.0726 33.785 65.6752 33.7209C65.1289 33.6407 65.0958 33.9292 65.1124 34.3299C65.1455 35.0191 65.1124 35.7082 65.1289 36.3974C65.1289 36.6057 65.0958 36.9423 65.4103 36.9102C66.1719 36.8461 65.9732 37.359 65.9567 37.7276C65.907 38.2725 65.3938 37.7917 65.2779 37.9841Z" fill="#2E302F"/>
<path d="M51.4542 35.3233C51.4542 34.6181 51.4873 33.9129 51.4377 33.2077C51.4045 32.6628 51.7688 32.775 52.0668 32.8071C52.3648 32.8391 52.8449 32.5506 52.8449 33.2077C52.8283 34.6181 52.8283 36.0445 52.8449 37.4549C52.8614 38.112 52.3648 37.8235 52.0833 37.8556C51.8019 37.8876 51.4211 37.9998 51.4542 37.4549C51.4873 36.7337 51.4542 36.0285 51.4542 35.3233Z" fill="#2E302F"/>
<path d="M52.0997 32.2462C51.5534 32.3905 51.4871 32.118 51.4375 31.6212C51.3878 30.9801 51.7686 31.0763 52.1825 31.0442C52.7123 30.9961 52.8447 31.1724 52.8613 31.6853C52.8944 32.3264 52.5467 32.2943 52.0997 32.2462Z" fill="#2E302F"/>
</g>
<defs>
<clipPath id="clip0_3_4202">
<rect width="186" height="38" fill="white"/>
</clipPath>
</defs>
</svg>
