<svg width="116" height="46" viewBox="0 0 116 46" fill="none" xmlns="http://www.w3.org/2000/svg">
<g clip-path="url(#clip0_37_2631)">
<path d="M28.0326 17.1927L20.5178 17.2211C19.4401 17.2235 18.4268 17.676 17.6662 18.4933C16.9056 19.3107 16.4887 20.3958 16.491 21.5472C16.4976 23.9187 18.3137 25.8496 20.54 25.8496L26.8485 25.833V22.7507L36.5653 30.1639L26.8485 38.835V35.6532H21.4868C14.1671 35.6532 8.13349 29.382 8.07584 21.5614C8.04923 17.7115 9.23777 14.4965 11.5084 12.2743C13.7037 10.1254 16.7992 8.99059 20.4601 8.99059H35.7781C35.9599 8.99059 36.1373 8.97401 36.3147 8.94795L25.6622 0.918831L22.305 0.558717C19.8437 0.29337 17.3535 0.416567 14.9432 1.0136C5.91829 3.24772 -0.0044438 11.0257 -8.95525e-06 21.4406C0.00664331 34.0043 9.81873 44.2817 21.5777 44.2817H27.8863C34.8667 44.2817 40.6742 38.3351 40.7451 30.877C40.7806 27.2 39.4524 23.7387 37.0199 21.1468C34.6273 18.5952 31.4364 17.1927 28.0326 17.1927Z" fill="#52B698"/>
<path d="M74.9866 31.2797H50.8366C51.3843 33.213 52.4132 34.7553 53.9211 35.9067C55.4289 37.0581 57.1319 37.6338 59.0322 37.6338C60.4757 37.6338 61.8151 37.3756 63.048 36.8567C64.2808 36.3403 65.2632 35.6319 65.9949 34.734H74.2459C73.3146 37.7215 71.4121 40.2494 68.5449 42.32C65.6756 44.3883 62.5956 45.4237 59.3072 45.4237C54.8102 45.4237 50.9453 43.725 47.7123 40.3276C46.1224 38.6289 44.925 36.7549 44.12 34.7032C43.3151 32.6515 42.9138 30.4079 42.9138 27.9676C42.9138 23.0469 44.5037 18.8297 47.6834 15.3139C50.8632 11.798 54.7836 10.0425 59.4424 10.0425C63.8285 10.0425 67.5782 11.7743 70.6958 15.2404C73.8113 18.7065 75.3702 22.7933 75.3702 27.4985C75.3702 27.8894 75.3702 28.2709 75.3702 28.6405C75.3147 28.9721 75.277 29.2162 75.2593 29.3725L74.9866 31.2797ZM50.728 24.1912H67.8598C67.2566 22.2769 66.179 20.7393 64.6245 19.5784C63.0701 18.4175 61.325 17.8347 59.3892 17.8347C57.4889 17.8347 55.7061 18.4199 54.043 19.5926C52.3822 20.7653 51.2757 22.2982 50.728 24.1912Z" fill="#52B698"/>
<path d="M76.4922 44.3409L90.8411 27.1786L78.1841 11.0256H74.1129L86.7699 27.1786L72.4188 44.3409" fill="#E9A349"/>
<path d="M101.651 27.1786L114.306 11.0256H108.707H104.636L97.2362 20.237H96.9923L89.5927 11.0256H85.5215H79.9225L92.5774 27.1786L78.2284 44.3409L84.3862 44.3859L88.4352 44.4167L96.9923 33.592H97.2362L105.793 44.4167L109.842 44.3859L116 44.3409L101.651 27.1786Z" fill="#52B698"/>
</g>
<defs>
<clipPath id="clip0_37_2631">
<rect width="116" height="45" fill="white" transform="translate(0 0.426025)"/>
</clipPath>
</defs>
</svg>
