<svg width="173" height="40" viewBox="0 0 173 40" fill="none" xmlns="http://www.w3.org/2000/svg">
<path d="M65.5594 1.52246H79.9964C83.5324 1.52246 86.3398 2.28838 88.4187 3.82023C90.5331 5.38514 91.5904 7.51209 91.5904 10.2011C91.5904 12.0553 91.2014 13.5706 90.4236 14.7443C89.7799 15.7141 88.8158 16.5048 87.5313 17.1192C89.6622 17.7143 91.3274 18.7172 92.5298 20.1305C93.9513 21.7809 94.6607 23.8747 94.6607 26.4095C94.6607 33.5204 89.9826 37.0773 80.6291 37.0773H65.5594V1.52246V1.52246ZM79.2843 14.6396C81.281 14.6396 82.278 13.7387 82.278 11.9341C82.278 10.011 81.3139 9.04945 79.3856 9.04945H74.6911V14.6396H79.2843ZM80.4264 29.5448C83.6064 29.5448 85.1977 28.2003 85.1977 25.5113C85.1977 22.8746 83.6064 21.5549 80.4264 21.5549H74.6911V29.5448H80.4264Z" fill="#ED8322"/>
<path d="M103.488 32.0346C99.7633 28.5742 97.9036 24.2569 97.9036 19.0828C97.9036 13.8922 99.766 9.57492 103.488 6.13102C107.112 2.78906 111.494 1.1167 116.638 1.1167C121.765 1.1167 126.139 2.78906 129.763 6.13102C133.488 9.57492 135.348 13.8922 135.348 19.0828C135.348 24.2569 133.485 28.5742 129.763 32.0346C126.139 35.3931 121.765 37.0738 116.638 37.0738C111.494 37.0738 107.109 35.3931 103.488 32.0346ZM123.4 26.0615C125.003 24.2652 125.805 21.9371 125.805 19.0828C125.805 16.2285 125.003 13.9005 123.4 12.1041C121.73 10.2224 119.475 9.28287 116.638 9.28287C113.781 9.28287 111.519 10.2251 109.851 12.1041C108.249 13.9032 107.446 16.2285 107.446 19.0828C107.446 21.9371 108.249 24.2652 109.851 26.0615C111.522 27.9764 113.784 28.9324 116.638 28.9324C119.475 28.9351 121.73 27.9764 123.4 26.0615Z" fill="#ED8322"/>
<path d="M172.8 28.734C169.527 34.2938 164.416 37.0738 157.47 37.0738C152.461 37.0738 148.21 35.3931 144.72 32.0346C141.113 28.5907 139.311 24.2735 139.311 19.0828C139.311 13.9087 141.08 9.59145 144.622 6.13102C148.045 2.78906 152.162 1.1167 156.972 1.1167C160.53 1.1167 163.616 1.83028 166.24 3.25743C168.527 4.49999 170.464 6.29908 172.052 8.6492L165.013 13.4376C164.211 12.195 163.277 11.2445 162.208 10.5888C160.823 9.71543 159.127 9.27736 157.125 9.27736C154.602 9.27736 152.584 10.2196 151.064 12.0986C149.593 13.9115 148.859 16.2395 148.859 19.0773C148.859 21.8986 149.618 24.2266 151.138 26.056C152.724 27.9708 154.819 28.9269 157.426 28.9269C159.53 28.9269 161.275 28.464 162.66 27.541C163.814 26.7696 164.805 25.6097 165.64 24.0641L172.8 28.734Z" fill="#ED8322"/>
<path d="M60.7142 10.4321H51.3717V37.1182H60.7142V10.4321Z" fill="#ED8322"/>
<path d="M60.7141 1.40332H51.5085C51.5085 6.39009 55.5266 10.4318 60.4841 10.4318C60.5608 10.4318 60.6374 10.4291 60.7141 10.4263V1.40332V1.40332Z" fill="#ED8322"/>
<path fill-rule="evenodd" clip-rule="evenodd" d="M18.0332 12.782C18.4386 13.4901 19.337 13.7325 20.0381 13.3248C20.742 12.917 20.9803 12.0134 20.5777 11.3053C20.1723 10.5972 19.274 10.3575 18.5701 10.7653C17.8689 11.1703 17.6279 12.074 18.0332 12.782ZM13.9796 27.8443C14.385 27.1362 14.1439 26.2325 13.4428 25.8248C12.7389 25.417 11.8405 25.6595 11.4351 26.3648C11.0297 27.0728 11.2708 27.9765 11.9747 28.3843C12.6759 28.792 13.5742 28.5523 13.9796 27.8443ZM28.9863 23.8521C28.1755 23.8521 27.5182 24.5133 27.5182 25.3288C27.5182 26.1471 28.1755 26.8083 28.9863 26.8083C29.797 26.8083 30.4543 26.1471 30.4543 25.3288C30.4543 24.5161 29.797 23.8521 28.9863 23.8521ZM10.1779 38.6746C17.4717 40.6418 25.0422 36.2419 26.9978 28.9077L27.0964 28.5C25.3846 27.4641 24.8039 25.2324 25.8064 23.4829C26.8225 21.7169 29.0684 21.1108 30.8296 22.1302C32.5852 23.1495 33.1851 25.4115 32.1717 27.1775C31.7033 27.993 30.9747 28.5606 30.1503 28.8361C30.0901 29.1226 30.0188 29.4119 29.9449 29.6985C28.9424 33.4647 26.7266 36.5973 23.8343 38.7848C30.9857 40.4545 38.2877 36.0903 40.2022 28.905C42.1551 21.5681 37.7838 13.9502 30.4899 11.9858C27.9372 11.297 25.3517 11.3907 22.9825 12.1125C22.9688 12.7159 22.8099 13.3275 22.4922 13.8868C21.4761 15.6529 19.2301 16.259 17.4717 15.2396C15.7161 14.2202 15.1135 11.9583 16.1269 10.1922C17.1403 8.42343 19.389 7.82006 21.1474 8.83946C21.372 8.96895 21.5802 9.12048 21.7664 9.28854C24.7519 8.30496 28.0359 8.15068 31.2815 9.02405C32.0402 9.22793 32.7742 9.48415 33.4781 9.78446C32.8427 7.68506 31.7006 5.70413 30.049 4.04555C24.6834 -1.34897 15.9872 -1.34898 10.6244 4.0483C5.26153 9.44283 5.26153 18.1903 10.6244 23.5821L10.9257 23.8714C12.0158 23.2653 13.3852 23.2322 14.5466 23.9044C16.3022 24.9238 16.902 27.1858 15.8886 28.9518C14.8752 30.7179 12.6266 31.3267 10.8709 30.3046C9.46307 29.4891 8.79751 27.8773 9.10701 26.3593C8.89063 26.1636 8.677 25.9598 8.46884 25.7504C5.72715 22.9925 4.13309 19.5183 3.68664 15.9284C2.19666 17.5263 1.06547 19.5045 0.465644 21.7555C-1.48722 29.0923 2.88413 36.7075 10.1779 38.6746Z" fill="#ED8322"/>
</svg>
